<?xml version="1.0" encoding="utf-8"?>
<!-- Generator: Adobe Illustrator 24.3.0, SVG Export Plug-In . SVG Version: 6.00 Build 0)  -->
<svg version="1.1" id="Capa_1" xmlns="http://www.w3.org/2000/svg" xmlns:xlink="http://www.w3.org/1999/xlink" x="0px" y="0px"
	 viewBox="0 0 153.3 330.6" style="enable-background:new 0 0 153.3 330.6;" xml:space="preserve">
<style type="text/css">
	.st0{fill:url(#SVGID_1_);}
	.st1{fill:none;stroke:#00E9CB;stroke-width:0.5;stroke-miterlimit:10;}
	.st2{fill:#00E9CB;}
	.st3{fill:none;stroke:#00E9CB;stroke-linecap:round;stroke-linejoin:round;}
	.st4{fill:none;stroke:#00E9CB;stroke-linecap:round;stroke-linejoin:round;stroke-dasharray:0,1.8971;}
	.st5{fill:none;stroke:#00E9CB;stroke-linecap:round;stroke-linejoin:round;stroke-dasharray:0,2.0564;}
	.st6{fill:none;stroke:#00E9CB;stroke-linecap:round;stroke-linejoin:round;stroke-dasharray:0,2.0601;}
	.st7{fill:none;}
	.st8{fill-rule:evenodd;clip-rule:evenodd;}
	.st9{fill-rule:evenodd;clip-rule:evenodd;fill:#CCCCCC;}
	.st10{fill-rule:evenodd;clip-rule:evenodd;fill:#F2F2F2;}
</style>
<g>
	<!-- <linearGradient id="SVGID_1_" gradientUnits="userSpaceOnUse" x1="-39.6986" y1="48.991" x2="192.961" y2="281.6506">
		<stop  offset="0" style="stop-color:#FFFFFF"/>
		<stop  offset="1" style="stop-color:#CCCCCC"/>
	</linearGradient>
	<path class="st0" d="M119.4,2.6v1.3c0,4.7-3.8,8.5-8.5,8.5H42.3c-4.7,0-8.5-3.8-8.5-8.5V2.6c0-1.4-1.2-2.6-2.6-2.6H15.9
		C7.1,0,0,7.1,0,15.9v298.9c0,8.8,7.1,15.9,15.9,15.9h121.5c8.8,0,15.9-7.1,15.9-15.9V15.9c0-8.8-7.1-15.9-15.9-15.9H122
		C120.6,0,119.4,1.2,119.4,2.6z"/> -->

	<circle class="st1" cx="37.8" cy="140.4" r="2.6"/>
	<path class="st1" d="M3.2,141.7c0-1.4,1.2-2.6,2.6-2.6s2.6,1.2,2.6,2.6c0,1.4-1.2,2.6-2.6,2.6S3.2,143.1,3.2,141.7z"/>
	<circle class="st1" cx="15.9" cy="130" r="1.3"/>
	<g>
		<line class="st1" x1="28.4" y1="136" x2="28.4" y2="129.5"/>
		<line class="st1" x1="25.2" y1="132.7" x2="31.7" y2="132.7"/>
	</g>
	<circle class="st1" cx="146.8" cy="63.3" r="2.6"/>
	<circle class="st1" cx="125.3" cy="54.2" r="2.6"/>
	<circle class="st1" cx="118" cy="62" r="1.3"/>
	<path class="st1" d="M8.9,58.9c0-0.7,0.6-1.3,1.3-1.3c0.7,0,1.3,0.6,1.3,1.3c0,0.7-0.6,1.3-1.3,1.3C9.5,60.2,8.9,59.6,8.9,58.9z"/>
	<circle class="st1" cx="134.2" cy="139.1" r="1.3"/>
	<g>
		<line class="st1" x1="137.4" y1="58.9" x2="137.4" y2="52.4"/>
		<line class="st1" x1="134.2" y1="55.6" x2="140.7" y2="55.6"/>
	</g>
	<path class="st1" d="M17.2,67.5c0-1.4,1.2-2.6,2.6-2.6s2.6,1.2,2.6,2.6s-1.2,2.6-2.6,2.6S17.2,68.9,17.2,67.5z"/>
	<circle class="st1" cx="122.7" cy="132.7" r="2.6"/>
	<g>
		<line class="st1" x1="35.2" y1="62.1" x2="35.2" y2="55.6"/>
		<line class="st1" x1="32" y1="58.9" x2="38.5" y2="58.9"/>
	</g>
	<g>
		<line class="st1" x1="146.8" y1="132" x2="146.8" y2="125.5"/>
		<line class="st1" x1="143.6" y1="128.7" x2="150.1" y2="128.7"/>
	</g>
	<path class="st2" d="M139,104.4c-0.7-4.5-4.4-6.7-7.7-6.7c0,0-0.1,0-0.1,0c0,0-0.1,0-0.1,0c-3.4,0-7.1,2.2-7.7,6.7
		c0,0.1-0.1,0.3-0.1,0.3v0.1v1v0c0,0,0,0,0,0.1c0,0.1,0,0.2,0,0.4c0,0,0,0.1,0,0.1c0,0,0,0,0,0c0,0.1,0,0.1,0,0.2
		c0.1,0.3,0.1,0.7,0.2,1c0,0.1,0,0.1,0.1,0.2c0,0,0,0.1,0.1,0.1c0.7,1.8,2,3.7,3.1,5.5c1.4,2.4,2.9,4.7,4.3,7c0,0.1,0.1,0.1,0.1,0.2
		c0,0,0,0,0,0c0,0,0,0,0,0c0-0.1,0.1-0.1,0.1-0.2c1.4-2.3,2.9-4.7,4.3-7c1.1-1.8,2.4-3.7,3.1-5.5c0,0,0-0.1,0.1-0.1
		c0-0.1,0-0.1,0.1-0.2c0.1-0.3,0.2-0.7,0.2-1c0-0.1,0-0.1,0-0.2c0,0,0,0,0,0c0,0,0-0.1,0-0.1c0-0.1,0-0.3,0-0.4c0,0,0,0,0-0.1v0v-1
		v-0.1C139,104.7,139,104.6,139,104.4z M131.1,108.4c-0.9,0-1.8-0.5-2.3-1.1c-0.2-0.2-0.3-0.5-0.4-0.8c-0.1-0.2-0.1-0.7-0.1-0.7
		v-0.6c0-0.4,0.1-0.7,0.2-1c0.3-0.6,0.8-1,1.4-1.3c0.1,0,0.1-0.1,0.2-0.1c0.1,0,0.1,0,0.2-0.1c0.1,0,0.2-0.1,0.4-0.1
		c0.1,0,0.3,0,0.4,0c0,0,0.1,0,0.1,0c0,0,0.1,0,0.1,0c0.1,0,0.3,0,0.4,0c0.1,0,0.2,0,0.4,0.1c0.1,0,0.1,0,0.2,0.1
		c0.1,0,0.1,0.1,0.2,0.1c0.6,0.3,1.1,0.7,1.3,1.3c0.1,0.3,0.2,0.6,0.2,1v0.6c0,0,0,0.5-0.1,0.7c-0.1,0.3-0.3,0.5-0.4,0.8
		C132.9,107.9,132,108.3,131.1,108.4z"/>
	<g>
		<g>
			<line class="st3" x1="131.1" y1="122.3" x2="131.1" y2="122.3"/>
			<line class="st4" x1="129.4" y1="123.1" x2="116.7" y2="129.4"/>
			<line class="st3" x1="115.8" y1="129.8" x2="115.8" y2="129.8"/>
			<path class="st5" d="M117.4,131.2c1.6,1.6,3.7,4.3,2.7,6.7c-1.5,3.6-5.5,7.9-19.2,9"/>
			<line class="st3" x1="99.9" y1="146.9" x2="99.9" y2="146.9"/>
			<line class="st6" x1="99.9" y1="148.9" x2="99.9" y2="174.7"/>
			<line class="st3" x1="99.9" y1="175.7" x2="99.9" y2="175.7"/>
		</g>
	</g>
</g>
<g>
	<path class="st8" d="M42.4,92.9C42.9,81.2,48,72.1,58.2,66c3.4-2.1,7.2-3.3,11.2-3.8c8.4-1.1,16,0.7,22.8,5.7
		c6.7,4.8,10.8,11.3,12.3,19.3c0.5,2.6,0.7,5.2,0.5,7.8c-0.8,8.9-4.6,16.3-11.7,22c-4.3,3.5-9.3,5.7-14.8,6.5
		c-6.4,1-12.6,0-18.5-2.8c-0.2-0.1-0.3-0.1-0.5-0.2c-0.5-0.1-0.9-0.3-1.2-0.7c-0.1-0.1-0.3-0.2-0.4-0.3
		c-7.6-4.6-12.5-11.1-14.6-19.7C42.7,97.6,42.5,95.3,42.4,92.9z M89.7,69.3c0,0-0.1,0.1-0.1,0.1c0,0.1-0.1,0.1-0.1,0.2
		c-0.6,0.6-1.3,0.9-2.1,0.6c-0.8-0.2-1.3-0.8-1.5-1.6c-0.1-0.4,0-0.9,0.2-1.2c0-0.1,0.1-0.2,0-0.2c-0.1-0.1-0.1,0.1-0.2,0.2
		c0,0,0,0.1-0.1,0.1c-0.3,0.8-1.1,1.3-1.9,1.3c-0.8,0-1.6-0.6-1.9-1.3c-0.2-0.5-0.1-1,0.1-1.5c0-0.1,0.1-0.1,0-0.2
		c-0.1,0-0.2,0-0.2,0.1c0,0,0,0.1,0,0.1c-0.4,0.9-1.4,1.5-2.4,1.2c-1-0.2-1.6-1.2-1.5-2.2c0-0.1,0.1-0.2,0-0.2
		c-0.4,1.4-1.1,2-2.2,1.9c-1.1-0.1-1.6-0.7-2-2.2c-0.2,1.4-0.7,2.1-1.7,2.2c-0.5,0.1-1,0-1.4-0.3c-0.4-0.3-0.7-0.7-0.9-1.2
		c-0.2,1.2-0.8,1.9-1.7,2c-1.3,0.2-2-0.5-2.5-1.6c0.2,1.2-0.1,2.2-1.3,2.6c-1,0.4-1.8,0-2.4-0.8c-0.3,1.9-2.2,2.4-3.3,1.5
		c-0.2-0.1-0.3-0.1-0.4,0c-0.1,0.1,0,0.2,0,0.3c0.7,1.2,0.1,2.6-1.1,3c-0.6,0.2-1.1,0.1-1.6-0.2c-0.1,0.1,0,0.2,0,0.3
		c0.3,1.1-0.4,2.2-1.4,2.4c-0.4,0.1-0.7,0.1-1.1,0c0,0,0,0,0,0c0,0,0,0.1,0,0.1c0.8,1.2,1.6,2.3,2.4,3.5c0.2,0.2,0.3,0.5,0,0.7
		c0.1,0,0.1,0.1,0.2,0.1c4.3,2.1,8.5,4.3,12.8,6.4c0.2,0.1,0.3,0,0.5-0.1c2.9-1.9,6-2,9-0.4c0.2,0.1,0.4,0.1,0.6,0
		c3.4-1.7,6.8-3.4,10.1-5.1c1-0.5,2.1-1,3.1-1.5c0.1,0,0.3,0,0.2-0.2c-0.2-0.2,0-0.3,0.1-0.5c0.8-0.8,1.5-1.6,2.3-2.4
		c-0.1,0-0.1,0-0.1,0c-1.8-0.2-2.4-2.4-1.2-3.5c0,0,0.1-0.1,0.1-0.2c-0.1-0.1-0.1,0-0.2,0.1c-0.6,0.5-1.3,0.6-2.1,0.4
		c-0.8-0.3-1.7-1.3-1.1-2.7C89.7,69.4,89.7,69.4,89.7,69.3C89.8,69.3,89.8,69.3,89.7,69.3C89.8,69.2,89.7,69.3,89.7,69.3z M50,108.7
		c1.4-0.6,2.5,0.3,2.8,1.3c0.2,0.7,0,1.2-0.3,1.8c0,0-0.1,0.1,0,0.1c0,0.1,0.1,0,0.1,0c1.4-0.8,3,0.1,3.1,1.5c0,0.3-0.1,0.6-0.1,1
		c0.1,0,0.2-0.1,0.3-0.1c0.8-0.3,1.5-0.1,2.1,0.4c0.6,0.6,0.8,1.3,0.6,2.1c0,0.1-0.2,0.2,0,0.3c0.2,0.1,0.2-0.1,0.3-0.1
		c1.2-0.7,2.7-0.1,3,1.3c0.1,0.2,0.1,0.4,0.1,0.7c0.1,0,0.1-0.1,0.2-0.1c0.6-0.6,1.4-0.9,2.2-0.6c0.8,0.3,1.3,0.9,1.4,1.8
		c0,0.1-0.1,0.3,0.1,0.3c0.2,0,0.2-0.1,0.2-0.2c0.5-0.7,1.1-1,2-0.9c0.8,0.1,1.4,0.6,1.7,1.4c0.1,0.2,0.1,0.4,0.1,0.6
		c0.2-0.5,0.5-0.9,0.9-1.2c0.1-0.1,0.1-0.2,0.2-0.3c0.4-1.1,0.9-2.2,1.3-3.3c0-0.1,0.1-0.3,0.2-0.3c0.3,0,0.3-0.2,0.3-0.4
		c-0.3-2-0.6-4-0.9-6c-0.4-3-0.9-6-1.3-9.1c0-0.2-0.1-0.4-0.4-0.5c-3.3-1.6-5.2-4.9-4.8-8.5c0-0.3,0-0.4-0.3-0.6
		c-2.6-2-5.2-4.1-7.7-6.1c-1.2-0.9-2.3-1.9-3.5-2.8c-0.1-0.1-0.2-0.3-0.3-0.1c-0.1,0.2-0.3,0.2-0.4,0.1c-1-0.3-1.9-0.6-2.9-1
		c-0.2-0.1-0.3-0.1-0.5,0c-0.6,0.2-1.1,0.2-1.7,0c-0.1,0-0.2-0.2-0.3,0c0,0.1,0.1,0.1,0.2,0.1c1.1,0.4,1.7,1.5,1.3,2.6
		c-0.4,1.1-1.6,1.6-2.7,1.2c-0.1,0-0.2-0.1-0.3-0.1c0,0,0,0.1,0,0.1c0,0.1,0.2,0.1,0.2,0.1c1,0.2,1.7,1,1.7,1.9c0,1-0.6,1.8-1.6,2.1
		c-0.3,0.1-0.6,0-1,0.1c1.1,0.3,1.7,0.8,1.8,1.8c0.1,1-0.4,1.7-1.4,2.2c0.9,0.4,1.3,1,1.4,1.8c0,1.3-0.7,2-2,2.2
		c0.1,0.1,0.2,0.1,0.3,0c1-0.2,2,0.3,2.3,1.2c0.5,1.2-0.2,2.3-1.5,2.7c-0.1,0-0.3,0-0.2,0.2c0.1,0.2,0.2,0,0.2,0
		c0.5-0.2,0.9-0.2,1.4,0c0.8,0.3,1.3,0.9,1.4,1.8c0.1,0.9-0.4,1.5-1.2,2c0.1,0,0.2,0,0.4,0c1.1-0.2,2.1,0.5,2.3,1.6
		C51,107.4,50.6,108.1,50,108.7c-0.1-0.1-0.1,0-0.1,0C49.9,108.7,50,108.7,50,108.7z M101.6,85.4c-0.3,0-0.6,0-0.9,0
		c-0.8-0.2-1.3-0.7-1.5-1.5c-0.2-0.8,0.1-1.5,0.8-2c0.1-0.1,0.3-0.1,0.2-0.3c-0.1-0.2-0.2-0.1-0.4-0.1c-0.3,0-0.7,0-0.9-0.2
		c-0.3-0.2-0.7-0.2-1-0.1c-1.1,0.2-2.2,0.4-3.3,0.5c-0.2,0-0.4,0.1-0.5-0.1c-0.1-0.3-0.3-0.1-0.4,0c-1.4,1.1-2.9,2.3-4.3,3.4
		c-2.3,1.8-4.7,3.7-7,5.5c-0.2,0.1-0.2,0.2-0.2,0.5c0.1,0.4,0.2,0.9,0.2,1.4c0,3.5-1.7,6.1-4.8,7.8c-0.2,0.1-0.3,0.2-0.3,0.5
		c-0.1,2.3-0.2,4.6-0.4,6.9c-0.2,2.7-0.3,5.3-0.5,8c0,0.2-0.2,0.5,0.3,0.5c0.1,0,0.1,0.2,0.1,0.3c0.2,0.7,0.5,1.5,0.7,2.2
		c0.2,0.7,0.5,1.5,0.7,2.3c0.3-0.7,0.6-1.1,1.2-1.3c0.9-0.4,1.8-0.1,2.5,0.7c0.1,0.1,0.1,0.2,0.2,0.2c0.1-0.1,0-0.2,0-0.2
		c0-0.2,0-0.4,0-0.7c0.2-0.9,0.7-1.4,1.6-1.6c0.8-0.2,1.6,0.2,2.1,0.9c0.1,0.1,0.1,0.2,0.2,0.2c0.1,0,0.1-0.1,0.1-0.2
		c-0.2-0.9,0.2-1.7,1-2.2c0.8-0.4,1.7-0.3,2.4,0.3c0.1,0.1,0.1,0.2,0.2,0.1c0.1-0.1,0-0.2,0-0.3c-0.2-0.8,0.1-1.5,0.7-2
		c0.7-0.5,1.4-0.6,2.2-0.2c0.1,0,0.1,0.2,0.2,0.1c0.1-0.1,0-0.2-0.1-0.3c-0.4-0.8-0.2-1.7,0.4-2.3c0.6-0.6,1.5-0.8,2.3-0.4
		c0.1,0,0.2,0.1,0.3,0.1c0.1-0.1,0-0.2-0.1-0.3c-0.4-0.8-0.4-1.6,0.1-2.3c0.5-0.7,1.3-0.9,2.1-0.7c0.1,0,0.2,0.1,0.3,0
		c0.1-0.1-0.1-0.2-0.1-0.3c-0.5-0.7-0.6-1.4-0.2-2.2c0.4-0.8,1.1-1.1,1.9-1.1c0.1,0,0.2,0.1,0.3,0c0-0.1-0.1-0.1-0.2-0.2
		c-0.6-0.6-0.9-1.4-0.6-2.2c0.3-0.8,1-1.3,1.9-1.3c0.1,0,0.2,0.1,0.2-0.1c0-0.1-0.1-0.1-0.2-0.2c-0.7-0.5-1-1.2-0.8-2
		c0.2-0.8,0.7-1.4,1.6-1.6c0.1,0,0.2,0,0.3-0.1c0-0.2-0.1-0.2-0.2-0.2c-0.5-0.3-0.9-0.7-1-1.3c-0.2-0.9,0.1-1.7,0.9-2.3
		c-0.3-0.2-0.6-0.5-0.8-0.8c-0.5-1-0.1-2.1,0.9-2.7c0.1,0,0.2,0,0.2-0.2c0-0.1-0.1-0.1-0.2-0.1c0,0-0.1,0-0.1,0
		c-0.8-0.2-1.4-0.8-1.6-1.6c-0.2-0.8,0.2-1.6,0.9-2.1C101.4,85.6,101.5,85.6,101.6,85.4z M74.1,110.3c0-1.8-0.1-3.6-0.1-5.4
		c0-0.3-0.1-0.3-0.3-0.3c-0.6,0-1.3,0-1.9,0c-0.3,0-0.4,0.1-0.3,0.4c0.1,0.7,0.2,1.5,0.3,2.2c0.4,2.7,0.8,5.4,1.2,8.1
		c0,0.3,0,0.6,0.2,0.8c0.2,0.1,0.5,0,0.8,0c0.3,0,0.3-0.1,0.3-0.3C74.2,113.8,74.2,112,74.1,110.3z M65.6,84.7
		c-0.1-0.1-0.2-0.1-0.3-0.2c-3.1-1.6-6.2-3.1-9.3-4.7c-0.8-0.4-0.8-0.4-1.3,0.4c-0.1,0.2-0.1,0.2,0.1,0.4c3.1,2,6.1,4.1,9.2,6.1
		c0.2,0.1,0.3,0.1,0.4-0.1C64.7,85.9,65.1,85.3,65.6,84.7z M84.4,88.2c0.1,0,0.1-0.1,0.2-0.1c2.8-2.2,5.6-4.3,8.3-6.5
		c0.2-0.2,0.6-0.3,0.6-0.6c0-0.2-0.3-0.5-0.4-0.8c-0.1-0.2-0.2-0.2-0.4-0.1c-3.1,1.9-6.3,3.8-9.4,5.7c-0.2,0.1-0.2,0.2-0.1,0.4
		C83.7,86.9,84,87.6,84.4,88.2z M83,85.6c0.1,0,0.2-0.1,0.2-0.1c3-1.8,5.9-3.6,8.9-5.4c0.7-0.4,0.7-0.4,0.3-1.1
		c-0.1-0.2-0.2-0.2-0.4-0.1c-1.7,0.8-3.4,1.7-5,2.5c-1.6,0.8-3.2,1.6-4.8,2.4c-0.2,0.1-0.2,0.1-0.1,0.3c0.3,0.4,0.6,0.9,0.9,1.3
		C82.9,85.5,82.9,85.6,83,85.6z M74.5,110.2c0,1.7,0.1,3.3,0.1,5c0,0.8,0,0.8,0.8,0.8c0.3,0,0.3-0.1,0.3-0.3
		c0.2-3.6,0.4-7.3,0.6-10.9c0-0.2,0-0.3-0.3-0.2c-0.5,0-1,0.1-1.5,0.1c-0.2,0-0.3,0.1-0.3,0.3C74.4,106.6,74.5,108.4,74.5,110.2z
		 M62.8,88.8c0.3-0.5,0.6-1,0.9-1.4c0.2-0.2,0.1-0.3-0.1-0.5c-2.9-1.9-5.8-3.8-8.7-5.7c-0.6-0.4-0.6-0.4-1.1,0.2
		c-0.1,0.2-0.1,0.3,0.1,0.4c1.2,1,2.4,1.9,3.7,2.9C59.3,86.1,61,87.4,62.8,88.8z M73.7,97.1c2.6,0,4.7-2.1,4.7-4.6
		c0-2.5-2.1-4.6-4.6-4.7c-2.4-0.1-4.8,1.8-4.9,4.6C68.9,95,71.1,97.1,73.7,97.1z M97.9,80.2C97.9,80.2,97.9,80.1,97.9,80.2
		c-0.9-1.5-1.8-2.8-2.6-4.2c-0.1-0.2-0.2-0.1-0.3,0c-0.4,0.4-0.8,0.8-1.3,1.2c-0.1,0.1-0.1,0.2-0.1,0.3c0.7,1.1,1.4,2.2,2.1,3.3
		c0.1,0.1,0.1,0.2,0.3,0.1c0.6-0.2,1.2-0.4,1.8-0.6C97.9,80.3,97.9,80.3,97.9,80.2z M74.2,120.1c0.8-0.2,1.6-0.1,2.4-0.2
		c0.2,0,0.3,0,0.2-0.2c-0.2-0.6-0.3-1.1-0.4-1.7c0-0.1-0.1-0.2-0.3-0.2c-1.3,0.1-2.6,0.1-3.9,0.1c-0.2,0-0.2,0.1-0.3,0.2
		c-0.1,0.6-0.2,1.1-0.4,1.7c-0.1,0.2,0,0.3,0.2,0.3C72.7,120.1,73.5,120.1,74.2,120.1z M54.1,77.5c0,0,0-0.1-0.1-0.1
		c-0.4-0.5-0.9-0.9-1.3-1.4c-0.1-0.2-0.2,0-0.3,0.1c-0.9,1.3-1.8,2.7-2.7,4c-0.1,0.2-0.1,0.2,0.1,0.3c0.5,0.2,1.1,0.4,1.6,0.6
		c0.2,0.1,0.3,0,0.4-0.1c0.7-1,1.4-2.1,2.1-3.1C54,77.6,54.1,77.6,54.1,77.5z M70.8,100.5c0.1,0.5,0.1,1,0.2,1.5
		c0,0.2,0.1,0.2,0.3,0.2c0.6,0,1.1,0,1.7,0c1,0,1,0,0.9-1c0-0.2-0.1-0.2-0.3-0.2c-0.4,0-0.7,0-1.1-0.1
		C72,100.8,71.4,100.6,70.8,100.5z M76.7,100.4c-0.5,0.2-1,0.3-1.5,0.4c-0.3,0.1-0.7,0-0.8,0.2c-0.1,0.2,0,0.6,0,0.9c0,0,0,0,0,0.1
		c0,0.2,0.1,0.2,0.2,0.2c0.6,0,1.2-0.1,1.9-0.1c0.1,0,0.2-0.1,0.2-0.2C76.6,101.4,76.6,100.9,76.7,100.4z M78.6,85.6
		c0.6,0.5,1.2,0.9,1.6,1.5c0.2,0.3,0.3,0,0.5-0.1c0.2-0.1,0.1-0.2,0-0.3c-0.3-0.5-0.7-1-1-1.5c0-0.1-0.1-0.2-0.2-0.1
		C79.2,85.3,78.9,85.4,78.6,85.6z M81.9,90.2c0.2-0.1,0.4-0.3,0.6-0.4c0.1-0.1,0.1-0.1,0-0.2c-0.4-0.7-0.9-1.4-1.3-2.1
		c-0.2-0.3-0.3,0-0.4,0c-0.1,0.1-0.2,0.1-0.1,0.3C81.2,88.5,81.6,89.3,81.9,90.2z M65.3,90.7c0.2-0.7,0.4-1.4,0.7-2
		c0.1-0.1,0.1-0.2,0-0.3c-0.2-0.1-0.2,0-0.2,0.1c-0.3,0.4-0.5,0.8-0.7,1.2C64.7,90.3,64.7,90.4,65.3,90.7
		C65.2,90.7,65.3,90.7,65.3,90.7z M68.3,86c-0.3,0-0.4-0.4-0.7-0.1c-0.5,0.7-1,1.4-1.4,2c-0.1,0.1-0.1,0.2,0,0.2
		c0.1,0.1,0.1,0,0.2-0.1C66.9,87.3,67.5,86.6,68.3,86z M75.8,103c0-0.1,0.2-0.4-0.2-0.4c-0.2,0-0.6-0.1-0.5,0.3
		c0,0.2-0.2,0.6,0.3,0.6C75.8,103.6,76,103.5,75.8,103z M81,85.9c0.1,0,0.7-0.4,0.7-0.5c-0.1-0.2-0.2-0.4-0.4-0.5
		c-0.1,0-0.7,0.4-0.7,0.4C80.6,85.4,80.9,85.9,81,85.9z M66.5,86.4c0-0.1-0.6-0.5-0.7-0.5c-0.2,0.1-0.3,0.3-0.4,0.5
		c0,0.1,0.6,0.5,0.6,0.5C66.4,86.8,66.4,86.5,66.5,86.4z M64.5,89.3c0.1,0,0.4-0.5,0.4-0.5c0,0-0.6-0.5-0.7-0.5
		c-0.2,0.1-0.3,0.3-0.4,0.5C63.8,88.9,64.4,89.3,64.5,89.3z M82.5,88.4c0.2,0,0.7-0.4,0.7-0.5c-0.1-0.2-0.2-0.4-0.4-0.5
		c-0.1,0-0.7,0.4-0.6,0.5C82.3,88.1,82.3,88.3,82.5,88.4z M72.9,103.2c0-0.3,0-0.5-0.4-0.4c-0.2,0-0.4,0-0.3,0.3
		c0,0.5,0,0.5,0.4,0.5C73,103.7,72.9,103.4,72.9,103.2z"/>
	<path class="st8" d="M87.7,126.3c0.5,1.1,1.1,2.2,1.7,3.4c0.1,0.3,0.1,0.4-0.2,0.5c-0.1,0-0.2,0.1-0.3,0.1
		c-0.2,0.1-0.3,0.1-0.4-0.1c-0.7-1.5-1.4-3-2.1-4.5c-0.1-0.2,0-0.2,0.1-0.3c0.3-0.1,0.6-0.3,0.9-0.4c0.2-0.1,0.3-0.1,0.4,0.1
		c0.7,1,1.4,2,2.1,3c0.1,0.1,0.1,0.2,0.2,0.3c0,0,0.1,0,0.1,0c0,0,0-0.1,0-0.1c-0.5-1.1-1.1-2.2-1.6-3.4c-0.1-0.2-0.1-0.4,0.2-0.5
		c0.5-0.2,0.5-0.2,0.8,0.3c0.6,1.4,1.3,2.8,1.9,4.1c0.1,0.2,0.1,0.3-0.1,0.4c-0.4,0.1-0.7,0.5-1,0.4c-0.3-0.1-0.5-0.6-0.7-0.9
		C89,127.9,88.4,127,87.7,126.3c0.1-0.1,0-0.2,0-0.2c0,0,0-0.1-0.1-0.1c-0.1,0,0,0.1,0,0.1C87.6,126.2,87.7,126.2,87.7,126.3z
		 M90.3,128.5c0-0.1,0-0.1,0-0.2c0,0,0,0-0.1,0C90.2,128.4,90.2,128.5,90.3,128.5z"/>
	<path class="st8" d="M96.2,61.1c-0.7,1.1-1.5,2.2-2.2,3.2c-0.2,0.2-0.3,0.2-0.5,0.1C93,64,93,64.1,93.4,63.6
		c0.9-1.2,1.8-2.5,2.6-3.7c0.1-0.2,0.2-0.3,0.4-0.1c0.3,0.3,0.8,0.4,0.9,0.7c0.1,0.3-0.3,0.7-0.4,1c-0.5,1-0.9,2-1.4,2.9
		c0,0-0.1,0.1,0,0.1c0,0,0,0,0.1-0.1c0.8-1.1,1.5-2.2,2.3-3.3c0.2-0.2,0.3-0.3,0.5-0.1c0.5,0.4,0.5,0.3,0.1,0.8
		c-0.9,1.2-1.8,2.5-2.6,3.7c-0.1,0.2-0.2,0.3-0.5,0.1c-0.3-0.3-0.8-0.4-0.9-0.7c-0.1-0.3,0.3-0.7,0.4-1C95.4,63,95.8,62.1,96.2,61.1
		C96.3,61.1,96.3,61.1,96.2,61.1C96.2,61,96.2,61,96.2,61.1z M96.3,60.9C96.4,60.9,96.4,60.9,96.3,60.9
		C96.4,60.9,96.3,60.9,96.3,60.9C96.3,60.9,96.3,60.9,96.3,60.9C96.3,60.9,96.3,60.9,96.3,60.9z M95.5,64.6
		C95.5,64.6,95.5,64.6,95.5,64.6C95.5,64.6,95.4,64.6,95.5,64.6C95.5,64.6,95.5,64.6,95.5,64.6C95.5,64.6,95.5,64.6,95.5,64.6z"/>
	<path class="st8" d="M51.1,120.4c-0.8,1-1.7,2.1-2.5,3.1c-0.2,0.2-0.3,0.2-0.5,0c-0.4-0.4-0.4-0.4-0.1-0.8c1-1.2,2-2.4,2.9-3.6
		c0.1-0.2,0.2-0.2,0.4-0.1c0.3,0.3,0.8,0.4,0.9,0.8c0,0.3-0.3,0.7-0.5,1c-0.5,0.9-1,1.9-1.6,2.8c0,0-0.1,0.1-0.1,0.1
		c0.1,0.1,0.1,0,0.1-0.1c0.8-1.1,1.7-2.1,2.5-3.2c0.2-0.2,0.3-0.2,0.5-0.1c0.5,0.4,0.5,0.4,0.1,0.8c-1,1.2-2,2.4-2.9,3.6
		c-0.1,0.2-0.2,0.2-0.4,0c-0.2-0.2-0.5-0.4-0.7-0.6c-0.2-0.1-0.2-0.2-0.1-0.5c0.6-1.1,1.3-2.3,1.9-3.4
		C51.1,120.6,51.2,120.5,51.1,120.4C51.2,120.4,51.2,120.4,51.1,120.4C51.2,120.4,51.1,120.4,51.1,120.4z"/>
	<path class="st8" d="M39.3,110.6c1.2-0.6,2.4-1.2,3.5-1.8c0.2-0.1,0.3-0.1,0.4,0.1c0.3,0.5,0.3,0.5-0.3,0.8
		c-1.4,0.7-2.7,1.4-4.1,2.1c-0.2,0.1-0.3,0.1-0.4-0.1c-0.1-0.4-0.5-0.7-0.5-1c0.1-0.3,0.6-0.5,0.9-0.7c0.9-0.6,1.7-1.3,2.6-1.9
		c0,0,0.1,0,0.1-0.1c0,0-0.1,0-0.1,0c-1.2,0.6-2.3,1.2-3.5,1.8c-0.3,0.2-0.4,0.1-0.6-0.2c-0.2-0.5-0.2-0.5,0.3-0.7
		c1.4-0.7,2.8-1.4,4.1-2.1c0.2-0.1,0.3-0.1,0.5,0.1c0.1,0.3,0.5,0.7,0.4,1c0,0.3-0.5,0.5-0.8,0.7C40.9,109.3,40.1,109.9,39.3,110.6
		c-0.1-0.1-0.1,0-0.2,0C39.1,110.6,39.2,110.6,39.3,110.6z"/>
	<path class="st8" d="M41.8,73.9c0.8-0.4,1.8-0.1,2.3,0.6c0.2,0.3,0.2,0.5,0.1,0.8c-0.2,0.6-0.6,1.2-0.9,1.8c-0.1,0.2-0.2,0-0.3,0
		c-0.8-0.5-1.7-0.9-2.5-1.4c-0.6-0.3-1.2-0.7-1.8-1c-0.2-0.1-0.2-0.2-0.1-0.3c0.3-0.4,0.5-0.8,0.7-1.2c0.4-0.6,0.8-0.8,1.3-0.6
		C41.2,72.8,41.8,73.2,41.8,73.9C41.7,73.9,41.8,73.9,41.8,73.9z M42.1,74.7c-0.3,0-0.5,0.2-0.5,0.4c-0.1,0.2,0.2,0.2,0.3,0.3
		c0.3,0.2,0.6,0.4,0.9,0.5c0.1,0,0.1,0.1,0.2,0c0.1-0.2,0.3-0.4,0.1-0.6C42.9,74.9,42.5,74.8,42.1,74.7z M41,74.3c0,0,0-0.1,0-0.1
		c-0.1-0.2-0.8-0.6-1-0.6c-0.2,0-0.3,0.2-0.3,0.3c-0.1,0.2,0.1,0.2,0.2,0.2c0.2,0.1,0.4,0.3,0.6,0.4C40.9,74.8,41,74.7,41,74.3z"/>
	<path class="st8" d="M36.6,95.3c-0.8,0-1.7,0-2.5,0c-0.2,0-0.3-0.1-0.3-0.3c0-0.4,0-0.8,0-1.2c0-0.9,0.4-1.3,1.3-1.4
		c1-0.1,2-0.2,2.9,0c0.8,0.1,1.2,0.5,1.2,1.3c0,0.4,0,0.9,0.1,1.3c0,0.2-0.1,0.3-0.3,0.3C38.2,95.2,37.4,95.2,36.6,95.3
		C36.6,95.2,36.6,95.2,36.6,95.3z M36.5,94.1C36.5,94.1,36.5,94.1,36.5,94.1c0.5,0,1.1,0,1.6,0c0.1,0,0.3,0.1,0.3-0.1
		c0-0.2,0-0.4-0.2-0.5c-0.1-0.1-0.2-0.1-0.4-0.1c-0.9,0-1.8,0-2.6,0c-0.1,0-0.2,0-0.4,0.1c-0.3,0.1-0.3,0.3-0.3,0.5
		c0,0.2,0.2,0.1,0.4,0.1C35.5,94.1,36,94.1,36.5,94.1z"/>
	<path class="st8" d="M72,56.9c0,0.2,0,0.3,0,0.5c-0.1,0.7-0.4,1.1-1.1,1.2c-0.5,0.1-1,0.1-1.5,0.2c-0.2,0-0.2-0.1-0.2-0.2
		c-0.1-1.7-0.2-3.3-0.4-5c0-0.1,0-0.3,0.2-0.3c0.5,0,1.1-0.1,1.6-0.1c0.7,0.1,1.1,0.4,1.3,1.1C72,55.2,72,56.1,72,56.9z M70,54.5
		c0.1,1,0.1,2,0.2,3c0,0.1-0.1,0.3,0.1,0.3c0.2,0,0.4,0,0.5-0.3c0-0.1,0-0.3,0-0.4c0-0.2,0-0.5-0.1-0.7c0-0.6-0.1-1.3-0.1-1.9
		c0-0.3-0.2-0.5-0.6-0.5C69.9,54.2,70.1,54.4,70,54.5z"/>
	<path class="st8" d="M112.2,97.3c-0.7-0.1-1.3-0.1-2-0.2c-0.9-0.1-1.3-0.6-1.3-1.5c0-0.4,0.1-0.8,0.1-1.2c0-0.2,0.1-0.3,0.3-0.3
		c1.3,0.1,2.6,0.2,3.8,0.3c0.4,0,0.7,0.1,1.1,0.1c0.2,0,0.3,0.1,0.3,0.3c0,0.5,0,1-0.1,1.5c-0.1,0.7-0.5,1-1.2,1.1
		C112.9,97.3,112.5,97.3,112.2,97.3z M110.4,95.3C110.4,95.3,110.4,95.4,110.4,95.3c-0.1,0-0.2,0-0.3,0c-0.1,0-0.3-0.1-0.3,0.1
		c0,0.2,0,0.4,0.2,0.5c0.1,0.1,0.3,0.1,0.4,0.1c0.9,0.1,1.7,0.1,2.6,0.2c0.1,0,0.2,0,0.3,0c0.3-0.1,0.3-0.3,0.3-0.5
		c0-0.2-0.2-0.1-0.3-0.1C112.3,95.5,111.3,95.4,110.4,95.3z"/>
	<path class="st8" d="M110.8,107.2c-0.1,0-0.3,0-0.5-0.1c-0.8-0.2-1.6-0.5-2.4-0.8c-0.9-0.4-1.2-0.9-0.9-1.9
		c0.1-0.4,0.3-0.8,0.4-1.2c0-0.2,0.1-0.2,0.3-0.1c1.6,0.5,3.2,1,4.8,1.6c0.1,0,0.2,0.1,0.2,0.3c-0.2,0.5-0.3,1-0.6,1.5
		C111.9,107,111.5,107.2,110.8,107.2z M110.9,106.1c0.4,0,0.5-0.2,0.6-0.4c0.1-0.2-0.2-0.2-0.3-0.2c-1-0.3-2-0.6-2.9-0.9
		c-0.1,0-0.2-0.2-0.3,0c-0.1,0.2-0.1,0.4,0,0.5c0.1,0.1,0.2,0.1,0.3,0.2c0.9,0.3,1.7,0.6,2.6,0.8C110.9,106.1,111,106.1,110.9,106.1
		z"/>
	<path class="st8" d="M107.3,70.7c0,0.5-0.2,0.8-0.5,1c-0.8,0.7-1.6,1.3-2.5,1.8c-0.6,0.3-1.2,0.2-1.7-0.3c-0.3-0.4-0.6-0.8-0.9-1.2
		c-0.1-0.1,0-0.2,0.1-0.3c1.4-1,2.8-2,4.1-3c0.1-0.1,0.1-0.1,0.2,0c0.4,0.5,0.8,1,1,1.6C107.3,70.5,107.3,70.6,107.3,70.7z
		 M103.5,72.7c0.1,0,0.3-0.1,0.4-0.2c0.7-0.5,1.4-1,2.2-1.5c0.1-0.1,0.2-0.2,0.2-0.3c0.1-0.2,0-0.4-0.1-0.5c-0.1-0.1-0.2,0-0.3,0.1
		c-0.8,0.6-1.7,1.2-2.5,1.8c-0.1,0.1-0.3,0.1-0.2,0.3C103.2,72.5,103.3,72.7,103.5,72.7z"/>
	<path class="st8" d="M34.3,99.6c0-0.7,0.2-1,0.8-1.2c1.2-0.4,2.4-0.6,3.6-0.6c0.6,0,1,0.3,1.2,0.9c0.1,0.2,0.1,0.4,0.1,0.6
		c0.1,0.7-0.1,1.2-0.8,1.4c-0.7,0.3-1.5,0.3-2.3,0.5c-0.4,0.1-0.8,0.1-1.1,0.1c-0.7,0-1.1-0.3-1.3-0.9
		C34.4,100.1,34.3,99.8,34.3,99.6z M38.6,98.9c-1,0.2-2,0.4-3,0.6c-0.2,0-0.4,0.1-0.4,0.4c0,0.3,0.3,0.3,0.5,0.3c1-0.1,2-0.3,3-0.5
		c0.2,0,0.4-0.2,0.4-0.4C39,98.9,38.8,98.9,38.6,98.9z"/>
	<path class="st8" d="M53.5,64.6c0,0.3-0.1,0.6-0.4,0.9c-0.4,0.4-0.9,0.7-1.3,1.1c-0.1,0.1-0.2,0.1-0.3,0c-1.1-1.3-2.1-2.7-3.2-4
		c-0.1-0.1-0.1-0.2,0-0.3c0.4-0.3,0.8-0.7,1.3-0.9c0.5-0.3,1.1-0.3,1.5,0.1c0.8,0.8,1.5,1.6,2.1,2.6C53.4,64.2,53.5,64.4,53.5,64.6z
		 M52.5,64.8c0-0.2-0.1-0.3-0.2-0.4c-0.5-0.7-1.1-1.4-1.6-2c-0.1-0.1-0.2-0.2-0.3-0.2c-0.2-0.1-0.4,0-0.6,0.2
		c-0.1,0.1,0.1,0.2,0.1,0.3c0.6,0.8,1.3,1.6,1.9,2.4c0.1,0.1,0.1,0.3,0.3,0.2C52.3,65.1,52.4,65,52.5,64.8z"/>
	<path class="st8" d="M85.5,60.5c-0.1,0-0.3,0-0.4-0.1c-1.1-0.3-1.4-0.8-1.1-1.8c0.2-0.9,0.5-1.9,0.9-2.7c0.5-1.1,2-1.3,2.7-0.3
		c0.3,0.4,0.3,0.8,0.2,1.2c-0.3,1-0.6,2-1,3C86.5,60.3,86.2,60.5,85.5,60.5z M86.7,56.2c0-0.2-0.1-0.3-0.3-0.4
		c-0.2-0.1-0.3,0-0.4,0.2c-0.1,0.1-0.1,0.3-0.2,0.4c-0.3,0.8-0.5,1.5-0.7,2.3c0,0.1-0.1,0.3-0.1,0.4c0,0.2,0.1,0.3,0.2,0.4
		c0.2,0.1,0.3,0,0.4-0.2c0.1-0.1,0.1-0.3,0.2-0.4c0.3-0.8,0.5-1.6,0.8-2.4C86.7,56.5,86.7,56.3,86.7,56.2z"/>
	<path class="st8" d="M56.9,62.6c0,0.2-0.1,0.4-0.2,0.6c-0.3,0.4-0.8,0.7-1.3,0.8c-0.3,0.1-0.6,0-0.9-0.2c-0.2-0.2-0.4-0.4-0.6-0.7
		c-0.4-0.7-0.8-1.3-1.3-2c-0.1-0.2-0.2-0.4-0.3-0.6c0-0.1-0.1-0.3-0.1-0.4c0-0.7,0.5-1,1-1.3c0.4-0.2,0.9-0.3,1.3,0
		c0.1,0.1,0.2,0.2,0.3,0.3c0.7,0.9,1.3,1.8,1.8,2.8C56.8,62.1,56.8,62.3,56.9,62.6z M55.8,62.6c0-0.1,0-0.1-0.1-0.2
		c-0.5-0.9-1.1-1.8-1.7-2.7c-0.1-0.2-0.3-0.3-0.5-0.1c-0.2,0.1-0.2,0.3-0.1,0.5c0.5,0.9,1.1,1.8,1.7,2.7c0,0.1,0.1,0.1,0.2,0.1
		C55.4,63.1,55.8,62.9,55.8,62.6z"/>
	<path class="st8" d="M110,98c0.9,0.1,2,0.3,3,0.5c0.5,0.1,0.9,0.4,1,0.9c0.1,0.6,0,1.3-0.5,1.7c-0.4,0.3-0.8,0.3-1.3,0.2
		c-0.9-0.1-1.9-0.3-2.8-0.5c-1.2-0.3-1.6-1.8-0.7-2.6C109.1,98,109.5,98,110,98z M109.7,99.1c-0.2,0-0.4,0-0.5,0.3
		c-0.1,0.3,0.1,0.4,0.3,0.4c1,0.2,2,0.4,3.1,0.5c0.2,0,0.4,0,0.5-0.3c0-0.3-0.1-0.4-0.3-0.4C111.8,99.4,110.8,99.3,109.7,99.1z"/>
	<path class="st8" d="M102.4,113.8c0.4,0,0.7,0.2,0.9,0.3c1.1,0.8,2.1,1.6,3.2,2.4c0.1,0.1,0.1,0.2,0,0.3c-0.5,0.8-0.5,0.8-1.3,0.2
		c-0.8-0.6-1.6-1.3-2.4-1.9c-0.5-0.4-0.7-0.4-0.8-0.2c-0.3,0.4,0.2,0.6,0.4,0.7c0.9,0.7,1.9,1.5,2.8,2.2c0.2,0.2,0.3,0.3,0.1,0.5
		c-0.5,0.6-0.5,0.6-1.1,0.1c-0.8-0.6-1.5-1.2-2.3-1.8c-0.3-0.2-0.5-0.4-0.7-0.7c-0.3-0.4-0.4-0.8-0.1-1.3
		C101.4,114.3,101.7,113.9,102.4,113.8z"/>
	<path class="st8" d="M43.6,110.5c0.2,0,0.4,0.1,0.6,0.2c0.2,0.1,0.3,0.3,0.4,0.4c0.6,0.9,0.6,1.5-0.3,2.1c-1.1,0.7-2.2,1.4-3.4,2.1
		c-0.1,0.1-0.2,0-0.3-0.1c-0.5-0.8-0.5-0.8,0.3-1.2c0.8-0.5,1.7-1,2.5-1.6c0.2-0.1,0.3-0.2,0.5-0.3c0.2-0.1,0.2-0.3,0.1-0.5
		c-0.1-0.2-0.3-0.2-0.5-0.1c-0.2,0.1-0.4,0.2-0.5,0.3c-1,0.6-2,1.2-3,1.8c-0.2,0.1-0.3,0.1-0.4-0.1c-0.5-0.7-0.5-0.7,0.3-1.2
		c0.8-0.5,1.7-1,2.5-1.6C42.8,110.8,43.2,110.6,43.6,110.5z"/>
	<path class="st8" d="M58.8,59.1c0.7-0.2,1,0.2,1.3,0.7c0.2,0.4,0.4,0.8,0.5,1.2c0.1,0.2,0.1,0.2-0.1,0.3c-0.8,0.4-0.8,0.4-1.2-0.4
		c-0.1-0.3-0.3-0.6-0.4-0.9c-0.1-0.2-0.2-0.3-0.4-0.2c-0.3,0-0.4,0.1-0.3,0.4c0.2,0.5,0.5,1.1,0.7,1.6c0.1,0.2,0.1,0.2-0.1,0.3
		c-0.8,0.4-0.8,0.4-1.1-0.4c-0.6-1.3-1.2-2.7-1.8-4c-0.1-0.2-0.1-0.3,0.2-0.4c0.5-0.2,1-0.5,1.6-0.6c0.5-0.1,0.9,0,1.2,0.5
		c0.1,0.1,0.1,0.2,0.2,0.4C59.3,58.1,59.4,58.6,58.8,59.1z M58.2,58.6c-0.1-0.3-0.2-0.6-0.4-0.9c-0.2-0.2-0.4-0.1-0.6,0
		c-0.2,0.1,0,0.2,0,0.4c0.1,0.3,0.2,0.5,0.3,0.7c0.1,0.1,0,0.3,0.2,0.3C58,59,58.2,58.9,58.2,58.6z"/>
	<path class="st8" d="M56.3,125.8c-0.6-0.5-0.4-1.1-0.1-1.7c0.2-0.3,0.3-0.6,0.5-0.9c0.1-0.2,0.2-0.2,0.4-0.1
		c0.8,0.4,0.8,0.4,0.4,1.2c-0.2,0.3-0.3,0.6-0.5,0.9c-0.1,0.2,0,0.4,0.2,0.5c0.2,0.1,0.3,0.1,0.4-0.1c0.3-0.5,0.6-1,0.8-1.5
		c0.1-0.2,0.2-0.3,0.4-0.1c0.7,0.4,0.7,0.4,0.3,1c-0.7,1.3-1.4,2.6-2.1,3.9c-0.1,0.2-0.2,0.3-0.5,0.1c-0.4-0.3-0.9-0.5-1.3-0.7
		c-0.6-0.4-0.7-0.8-0.4-1.5c0,0,0-0.1,0.1-0.1C55.1,126,55.5,125.6,56.3,125.8z M55.8,127.4c0,0.2,0.1,0.4,0.3,0.5
		c0.2,0.1,0.2-0.1,0.3-0.3c0.2-0.3,0.3-0.6,0.5-0.8c0-0.1,0.1-0.2,0-0.2c-0.2-0.1-0.4-0.2-0.6,0C56,126.7,55.9,127,55.8,127.4z"/>
	<path class="st8" d="M38.6,81.1c0.3-0.6,0.8-0.6,1.3-0.5c0.5,0.1,0.9,0.3,1.4,0.5c0.2,0,0.2,0.1,0.1,0.3c-0.3,0.9-0.3,0.9-1.1,0.6
		c-0.3-0.1-0.6-0.2-1-0.3c-0.2-0.1-0.4-0.1-0.5,0.1c-0.1,0.2-0.2,0.4,0.2,0.5c0.6,0.2,1.1,0.4,1.7,0.6c0.2,0.1,0.2,0.1,0.2,0.3
		c-0.2,0.8-0.2,0.8-1,0.5c-1.4-0.5-2.8-1-4.1-1.4c-0.3-0.1-0.3-0.2-0.2-0.4c0.2-0.4,0.3-0.9,0.5-1.3c0.3-0.7,0.8-0.9,1.5-0.7
		c0,0,0.1,0,0.1,0C38.3,80.1,38.5,80.3,38.6,81.1z M36.9,80.9c-0.3,0-0.4,0.2-0.5,0.4c-0.1,0.3,0.2,0.2,0.3,0.2
		c0.3,0.1,0.6,0.2,0.9,0.3c0.2,0.1,0.3,0,0.3-0.2c0-0.2,0-0.4-0.2-0.5C37.5,81,37.2,80.9,36.9,80.9z"/>
	<path class="st8" d="M44.8,74.5c-0.7-0.7-1.4-1.5-2.1-2.2c-0.5-0.5-1-1.1-1.6-1.6c-0.2-0.2-0.2-0.3,0-0.5c0.3-0.3,0.4-0.8,0.7-0.8
		c0.3-0.1,0.7,0.3,1,0.4c1.2,0.6,2.5,1.2,3.7,1.8c0.2,0.1,0.3,0.2,0.1,0.4c-0.5,0.6-0.5,0.6-1.2,0.3c-0.3-0.2-0.4-0.1-0.6,0.1
		c-0.1,0.1-0.1,0.2-0.2,0.3c-0.1,0.1-0.1,0.2,0,0.3c0.2,0.2,0.4,0.4,0.6,0.6c0.1,0.1,0.1,0.2,0,0.3C45.1,74,44.9,74.2,44.8,74.5z
		 M42.4,70.6c0.4,0.5,0.9,1,1.4,1.5c0.2,0.2,0.3,0.1,0.3-0.1c0.1-0.1,0.4-0.3,0-0.4c-0.5-0.3-1-0.6-1.6-0.9
		C42.5,70.6,42.4,70.6,42.4,70.6z"/>
	<path class="st8" d="M114.5,91.9c0,0.7,0,0.7-0.7,0.8c-1.5,0.3-3,0.6-4.5,0.9c-0.3,0.1-0.3,0-0.3-0.3c0-0.8,0-0.8,0.7-0.9
		c0.3,0,0.5-0.2,0.4-0.5c0-0.1,0-0.2,0-0.3c0-0.2,0-0.3-0.2-0.3c-0.1,0-0.2,0-0.2,0c-0.7-0.1-0.7-0.1-0.7-0.8c0-0.2,0-0.3,0.3-0.2
		c1.4,0.2,2.8,0.4,4.2,0.6c0.1,0,0.2,0,0.3,0C114.5,91.1,114.5,91.1,114.5,91.9z M113.4,91.9C113.3,91.9,113.3,91.8,113.4,91.9
		c-0.8-0.2-1.5-0.3-2.2-0.3c-0.3,0-0.1,0.2-0.2,0.4c0,0.1,0,0.3,0.2,0.3C112,92.1,112.7,92,113.4,91.9z"/>
	<path class="st8" d="M97.4,120.2c-0.1-0.2-0.2-0.4-0.3-0.5c-0.2-0.3-0.2-0.5,0.1-0.7c0.4-0.3,0.4-0.4,0.7,0.1
		c0.8,1.4,1.6,2.7,2.4,4.1c0.1,0.2,0.1,0.3-0.1,0.4c-0.3,0.2-0.6,0.7-0.9,0.7c-0.3,0-0.6-0.4-0.9-0.6c-1-0.9-2.1-1.7-3.1-2.6
		c-0.3-0.2-0.2-0.3,0-0.5c0.5-0.4,0.6-0.5,1.1,0c0.3,0.3,0.5,0.3,0.7,0C97.2,120.4,97.3,120.4,97.4,120.2z M99.1,123
		C99.1,123,99.1,123,99.1,123C99.2,123,99.2,123,99.1,123C99.1,123,99.1,123,99.1,123c0.1-0.1,0-0.1-0.1-0.2c-0.3-0.6-0.7-1.1-1-1.7
		c-0.1-0.2-0.3-0.1-0.3,0c-0.1,0.1-0.4,0.1-0.1,0.4c0.5,0.4,1,0.9,1.5,1.3C99,122.9,99.1,122.9,99.1,123z"/>
	<path class="st8" d="M50.6,67.7c-0.2-0.2-0.4-0.3-0.6-0.5c-0.1-0.1-0.2-0.3-0.4-0.2c-0.2,0.2-0.4,0.4-0.6,0.6c0,0,0,0.1,0,0.1
		c0,0.1,0.1,0.2,0.2,0.2c0.4,0.6,0.4,0.6-0.2,1.1c-0.2,0.1-0.2,0.1-0.3,0c-0.3-0.4-0.5-0.8-0.8-1.3c-0.6-1-1.3-2-1.9-3
		c-0.1-0.2-0.1-0.3,0.1-0.5c0.1-0.1,0.3-0.2,0.4-0.4c0.5-0.4,0.5-0.4,0.9-0.1c1.2,0.9,2.5,1.9,3.7,2.8c0.2,0.2,0.2,0.3,0,0.4
		c-0.2,0.1-0.3,0.3-0.4,0.4C50.7,67.6,50.6,67.6,50.6,67.7z M47.3,64.9C47.3,65,47.2,65,47.3,64.9c0.3,0.6,0.7,1.2,1.1,1.8
		c0.2,0.2,0.3,0,0.3-0.1c0.1-0.1,0.4-0.1,0.1-0.4C48.4,65.8,47.8,65.4,47.3,64.9z"/>
	<path class="st8" d="M92.6,63.7c-0.3-0.2-0.6-0.3-0.8-0.5c-0.1,0,0-0.1,0-0.2c0-0.1,0.1-0.2,0.1-0.3c0.3-0.6,0.3-0.6-0.4-1
		c-0.2-0.1-0.3-0.1-0.4,0.1c0,0.1-0.1,0.1-0.1,0.1c-0.5,0.6-0.5,0.6-1.2,0.2c-0.1-0.1-0.2-0.1-0.1-0.3c1.1-1.3,2.2-2.6,3.3-4
		c0.1-0.1,0.2-0.1,0.3-0.1c0.3,0.2,0.6,0.3,0.9,0.5c0.1,0.1,0.2,0.2,0.1,0.3c-0.6,1.6-1.2,3.2-1.8,4.9
		C92.7,63.6,92.7,63.7,92.6,63.7z M93.3,59.2c-0.5,0.5-0.8,1.1-1.3,1.6c-0.2,0.2,0,0.3,0.1,0.3c0.1,0,0.3,0.4,0.4,0
		C92.8,60.5,93,59.9,93.3,59.2C93.3,59.2,93.4,59.2,93.3,59.2C93.3,59.2,93.3,59.2,93.3,59.2z M93.4,59.1L93.4,59.1L93.4,59.1
		L93.4,59.1z"/>
	<path class="st8" d="M94.5,127.4c0,0.1,0,0.2-0.1,0.2c-0.3,0.2-0.6,0.4-0.9,0.5c-0.1,0.1-0.2,0.1-0.3-0.1c-1.1-1.3-2.2-2.6-3.3-4
		c-0.1-0.1-0.1-0.2,0.1-0.3c0,0,0,0,0.1,0c0.7-0.4,0.7-0.4,1.2,0.2c0.2,0.3,0.3,0.2,0.6,0.1c0.5-0.3,0.5-0.3,0.3-0.8
		c-0.2-0.6-0.2-0.6,0.3-0.9c0.3-0.2,0.4-0.1,0.5,0.2c0.5,1.5,1.1,3.1,1.6,4.6C94.5,127.3,94.5,127.4,94.5,127.4z M93.3,126.9
		C93.3,126.8,93.3,126.8,93.3,126.9c-0.2-0.6-0.4-1.3-0.6-1.9c-0.1-0.3-0.2-0.3-0.4-0.1c-0.1,0.1-0.4,0.1-0.2,0.3
		C92.4,125.7,92.9,126.3,93.3,126.9z M93.4,127C93.4,126.9,93.4,126.9,93.4,127C93.4,126.9,93.4,126.9,93.4,127
		C93.4,126.9,93.4,126.9,93.4,127C93.4,126.9,93.4,126.9,93.4,127z"/>
	<path class="st8" d="M41.9,79.9c-0.1,0.3-0.2,0.6-0.4,0.8c-0.1,0.1-0.2,0-0.3-0.1c-1.2-0.8-2.4-1.7-3.5-2.5
		c-0.3-0.2-0.7-0.3-0.7-0.6c0-0.3,0.2-0.6,0.3-0.9c0.1-0.3,0.3-0.4,0.6-0.3c1.5,0.4,3.1,0.9,4.6,1.3c0.2,0.1,0.3,0.1,0.2,0.4
		c-0.3,0.7-0.3,0.7-1.1,0.5c-0.3-0.1-0.4-0.1-0.5,0.2c-0.2,0.5-0.2,0.5,0.3,0.8C41.6,79.6,41.8,79.7,41.9,79.9z M38.3,77.4
		C38.3,77.3,38.3,77.3,38.3,77.4C38.2,77.3,38.2,77.3,38.3,77.4C38.2,77.3,38.3,77.4,38.3,77.4c0.5,0.4,1.2,0.7,1.7,1.2
		c0.2,0.1,0.3,0.1,0.4-0.1c0-0.1,0.3-0.3,0.1-0.4C39.7,77.8,39,77.5,38.3,77.4z"/>
	<path class="st8" d="M64.6,54.2c0.6,0,1.3,0.7,1.2,1.3c-0.1,0.3-0.6,0.2-0.9,0.3c-0.2,0.1-0.2-0.1-0.2-0.2c0-0.1-0.1-0.3-0.1-0.4
		c-0.1-0.2-0.2-0.2-0.3-0.2c-0.2,0.1-0.2,0.2-0.2,0.3c0.1,0.5,0.3,0.9,0.8,1.1c0.1,0,0.3,0.1,0.4,0.2c1,0.2,1.2,0.9,1.3,1.8
		c0,0.1,0,0.2,0,0.3c-0.1,0.6-0.8,1.1-1.7,1.1c-0.6,0-0.9-0.3-1.1-0.9c-0.2-0.5-0.2-0.5,0.4-0.7c0.1,0,0.1,0,0.2-0.1
		c0.3-0.1,0.4,0,0.5,0.3c0,0.1,0.1,0.2,0.1,0.3c0.1,0.1,0.2,0.2,0.3,0.1c0.1,0,0.2-0.1,0.2-0.3c0-0.4-0.2-0.8-0.6-1
		c-0.3-0.1-0.6-0.3-1-0.4c-0.7-0.3-1.1-1.4-0.9-2.1C63.2,54.6,63.9,54.2,64.6,54.2z"/>
	<path class="st8" d="M113.8,85c0,0.6-0.7,1.3-1.3,1.2c0,0-0.1,0-0.1,0c-0.1-0.3-0.2-0.6-0.2-1c0-0.1,0.1-0.1,0.2-0.1
		c0.1,0,0.3-0.1,0.4-0.1c0.1,0,0.2-0.2,0.1-0.3c0-0.1-0.1-0.2-0.3-0.2c-0.5,0-0.9,0.2-1.1,0.7c-0.1,0.3-0.3,0.6-0.4,0.9
		c-0.2,0.7-1.2,0.9-1.8,0.8c-0.5,0-0.9-0.4-1.1-1.1c0-0.1-0.1-0.3-0.1-0.4c-0.1-0.7,0.1-1.1,0.8-1.4c0.6-0.2,0.6-0.2,0.8,0.4
		c0,0,0,0,0,0c0.1,0.5,0.1,0.5-0.4,0.6c-0.2,0.1-0.4,0.1-0.3,0.4c0.1,0.3,0.3,0.2,0.5,0.2c0.4-0.1,0.7-0.3,0.9-0.7
		c0-0.1,0.1-0.2,0.1-0.3c0.2-0.9,0.9-1.2,1.7-1.4c0.5-0.1,0.9,0.1,1.2,0.5C113.7,84.2,113.8,84.6,113.8,85z"/>
	<path class="st8" d="M102,121.7c-0.5,0-1-0.3-1.2-0.7c-0.2-0.3,0.4-0.5,0.5-0.7c0.1-0.1,0.2-0.1,0.3,0c0.1,0.1,0.2,0.2,0.3,0.2
		c0.2,0.1,0.4,0.2,0.5,0c0.2-0.2,0.1-0.4-0.1-0.5c-0.3-0.3-0.6-0.6-1-0.9c-0.4-0.4-0.8-0.8-1.3-1.2c-0.2-0.2-0.4-0.3-0.6,0
		c-0.2,0.2,0,0.4,0.1,0.6c0.4,0.4,0.4,0.4,0,0.9c-0.3,0.4-0.3,0.4-0.7,0c-0.3-0.4-0.7-0.7-0.5-1.3c0.2-0.6,0.7-1.1,1.3-1.3
		c0.2-0.1,0.5,0,0.7,0.1c0.3,0.2,0.6,0.4,0.8,0.6c0.5,0.5,1.1,1,1.6,1.5c0.9,0.9,0.8,1.9-0.4,2.6C102.3,121.6,102.2,121.7,102,121.7
		z"/>
	<path class="st8" d="M36.5,105.1c-0.7,0-1.1-0.4-1.3-1.3c-0.2-0.9,0.4-1.7,1.3-1.6c0.4,0,0.2,0.5,0.4,0.8c0.1,0.2,0,0.2-0.1,0.2
		c-0.1,0-0.3,0.1-0.4,0.1c-0.2,0.1-0.3,0.2-0.3,0.4c0.1,0.2,0.3,0.3,0.5,0.2c0.4-0.1,0.7-0.2,1.1-0.3c0.6-0.2,1.2-0.3,1.8-0.5
		c0.1,0,0.3-0.1,0.4-0.2c0.1-0.1,0.1-0.2,0.1-0.4c-0.1-0.1-0.1-0.2-0.3-0.2c-0.2,0-0.3,0-0.5,0.1c-0.3,0.1-0.4,0-0.4-0.3
		c0,0,0,0,0-0.1c-0.2-0.7-0.2-0.7,0.6-0.8c0.8-0.1,1.2,0.1,1.4,0.9c0.1,0.2,0.1,0.4,0.1,0.7c0,0.5-0.2,0.9-0.6,1.1
		C39.7,104.5,37.1,105.1,36.5,105.1z"/>
	<path class="st8" d="M82.1,57.9c0.3-0.9,0.7-1.9,1-2.8c0-0.1,0.1-0.2,0.1-0.4c0.2-0.6,0.3-0.7,1-0.4c0.2,0.1,0.1,0.1,0.1,0.2
		c-0.7,1.6-1.3,3.2-2,4.7c-0.1,0.1-0.1,0.2-0.3,0.1c0,0,0,0,0,0c-1-0.2-1-0.2-0.9-1.2c0.1-1.4,0.1-2.8,0.2-4.2
		c0-0.3,0.1-0.4,0.4-0.3c0.8,0.2,0.8,0.2,0.7,0.9C82.2,55.8,82.1,56.8,82.1,57.9C82,57.9,82,57.9,82.1,57.9z"/>
	<path class="st8" d="M72.9,55.8c0-0.8,0-1.6,0-2.4c0-0.3,0.1-0.4,0.4-0.4c0.5,0,1.1,0,1.6,0c0.2,0,0.3,0.1,0.3,0.3
		c0,0.1,0,0.2,0,0.2c0,0.3-0.1,0.3-0.3,0.3C74,54,74,54,74,54.8c0,0.6,0,0.5,0.5,0.5c0.1,0,0.2,0,0.3,0c0.2,0,0.3,0.1,0.3,0.3
		c0,0,0,0,0,0.1c0,0.5,0,0.5-0.5,0.5c-0.1,0-0.2,0-0.3,0c-0.2,0-0.3,0-0.3,0.3c0,0.4,0,0.7,0,1.1c0,0.2,0.1,0.2,0.3,0.2
		c0.1,0,0.3,0,0.4,0c0.6,0,0.5,0,0.6,0.5c0,0.2,0,0.3-0.3,0.3c-0.6,0-1.2,0-1.8,0c-0.2,0-0.3-0.1-0.3-0.3
		C72.9,57.5,72.9,56.7,72.9,55.8C72.9,55.8,72.9,55.8,72.9,55.8z"/>
	<path class="st8" d="M35.8,90c0.3,0.1,0.4-0.1,0.4-0.3c0,0,0,0,0-0.1c0.1-0.6,0.1-0.6,0.7-0.5c0.2,0,0.2,0.1,0.2,0.2c0,0,0,0,0,0
		c0,0.3-0.2,0.6,0,0.8c0.2,0.1,0.5,0.1,0.8,0.1c0.7,0.1,0.7,0.1,0.8-0.7c0-0.2-0.1-0.4,0.1-0.4c0.2-0.1,0.4,0,0.7,0
		c0.1,0,0.1,0.1,0.1,0.2c-0.1,0.6-0.1,1.3-0.2,1.9c0,0.2-0.2,0.2-0.3,0.2c-1.2-0.1-2.5-0.2-3.7-0.3c-0.4,0-0.8-0.1-1.2-0.1
		c-0.2,0-0.3,0-0.2-0.2c0.1-0.6,0.1-1.2,0.2-1.7c0-0.2,0.1-0.3,0.3-0.2c0.1,0,0.2,0,0.3,0c0.2,0,0.3,0.1,0.3,0.3
		C34.8,90,34.8,90,35.6,90C35.7,90,35.7,90,35.8,90z"/>
	<path class="st8" d="M63.5,60c0,0.2-0.1,0.2-0.2,0.2c-0.6,0.2-1.2,0.4-1.8,0.6c-0.1,0-0.2,0-0.3-0.1c-0.5-1.6-1-3.2-1.6-4.8
		c-0.1-0.2,0-0.2,0.2-0.3c0.6-0.2,1.2-0.4,1.7-0.6c0.1,0,0.2,0,0.3,0.1c0.3,0.6,0.3,0.6-0.4,0.8c-0.5,0.2-0.5,0.2-0.3,0.7
		c0.1,0.2,0.1,0.6,0.3,0.7c0.2,0.1,0.5-0.1,0.7-0.2c0.2-0.1,0.3,0,0.3,0.2c0,0.1,0,0.2,0.1,0.2c0.1,0.2,0.1,0.4-0.2,0.4
		c-0.7,0.2-0.7,0.2-0.5,0.9c0.3,0.8,0.3,0.8,0.9,0.6c0.2,0,0.4-0.2,0.5-0.1C63.4,59.6,63.4,59.9,63.5,60z"/>
	<path class="st8" d="M108.6,83.4c0,0.2,0,0.2-0.1,0.2c-0.6,0.3-0.6,0.3-0.8-0.3c-0.2-0.5-0.3-0.9-0.5-1.4c-0.1-0.2-0.1-0.3,0.2-0.4
		c1.6-0.5,3.1-1.1,4.7-1.6c0.2-0.1,0.3,0,0.4,0.2c0.2,0.5,0.4,1.1,0.6,1.6c0.1,0.2,0,0.3-0.2,0.3c-0.5,0.2-0.5,0.2-0.7-0.3
		c-0.2-0.5-0.2-0.5-0.7-0.4c-0.7,0.2-0.7,0.2-0.5,0.9c0.1,0.2,0,0.3-0.2,0.4c0,0-0.1,0-0.1,0c-0.3,0.2-0.4,0.1-0.5-0.3
		c-0.2-0.6-0.2-0.6-0.8-0.4c-0.3,0.1-0.7,0.1-0.9,0.4C108.2,82.7,108.4,83,108.6,83.4C108.6,83.3,108.6,83.4,108.6,83.4z"/>
	<path class="st8" d="M110,109.6c0-0.1-0.1-0.1-0.1-0.1c-0.1,0-0.2-0.1-0.3-0.1c-0.3-0.1-0.5-0.3-0.8-0.3c-0.2,0-0.3,0.4-0.4,0.7
		c-0.1,0.2-0.2,0.2-0.3,0.1c0,0,0,0-0.1,0c-0.5-0.2-0.5-0.2-0.3-0.7c0.2-0.4,0.2-0.4-0.3-0.7c0,0,0,0-0.1,0
		c-0.3-0.1-0.6-0.4-0.9-0.3c-0.3,0.1-0.3,0.5-0.4,0.8c-0.1,0.2-0.2,0.2-0.4,0.1c-0.5-0.2-0.5-0.2-0.3-0.8c0.2-0.5,0.4-0.9,0.6-1.4
		c0.1-0.2,0.1-0.2,0.3-0.1c1.5,0.7,3.1,1.4,4.6,2c0.2,0.1,0.2,0.1,0.1,0.3c-0.3,0.5-0.5,1.1-0.7,1.6c-0.1,0.2-0.2,0.2-0.3,0.1
		c-0.5-0.2-0.6-0.2-0.3-0.8C109.9,109.9,109.9,109.8,110,109.6z"/>
	<path class="st8" d="M104.1,66.2c-0.2,0.2-0.3,0.4-0.5,0.5c-0.1,0.1-0.2-0.1-0.3-0.1c-0.2-0.2-0.4-0.5-0.6-0.5
		c-0.2,0-0.4,0.3-0.6,0.5c-0.1,0.1-0.1,0.1-0.2,0.2c-0.1,0.1-0.1,0.2,0,0.3c0.1,0.1,0.1,0.1,0.2,0.2c0.4,0.4,0.4,0.6-0.1,0.9
		c-0.1,0.1-0.1,0.1-0.2,0c0,0,0,0,0-0.1c-0.2-0.2-0.3-0.5-0.6-0.5c-0.2,0-0.4,0.3-0.6,0.5c-0.5,0.5-0.5,0.5,0,1
		c0.1,0.1,0.1,0.1,0.2,0.2c0.1,0.1,0.1,0.2,0,0.3c-0.4,0.4-0.4,0.4-0.9,0c-0.3-0.4-0.7-0.7-1.1-1.1c-0.1-0.1-0.2-0.2,0-0.4
		c1.2-1.1,2.4-2.3,3.6-3.5c0.1-0.1,0.2-0.2,0.3,0c0.4,0.5,0.9,0.9,1.3,1.4C104,66.1,104,66.2,104.1,66.2z"/>
	<path class="st8" d="M107.8,75.1c0,0.1,0,0.1-0.1,0.1c-0.1,0.1-0.2,0.1-0.3,0.2c-0.2,0.1-0.3,0.1-0.4-0.1c-0.4-0.6-0.4-0.6-1-0.3
		c-0.2,0.1-0.6,0.2-0.7,0.4c-0.1,0.2,0.2,0.5,0.3,0.7c0.1,0.1,0.2,0.2,0.1,0.3c-0.2,0.2-0.4,0.3-0.6,0.4c-0.1,0-0.1-0.1-0.1-0.1
		c-0.3-0.5-0.6-1.1-1-1.6c-0.1-0.2-0.1-0.2,0.1-0.3c1.5-0.8,2.9-1.7,4.4-2.5c0.2-0.1,0.2-0.1,0.3,0.1c0.3,0.5,0.6,1,0.9,1.5
		c0.1,0.1,0.1,0.2-0.1,0.3c-0.5,0.3-0.5,0.3-0.9-0.2c-0.3-0.4-0.3-0.4-0.7-0.2c-0.2,0.1-0.6,0.2-0.7,0.4c-0.1,0.2,0.2,0.5,0.3,0.7
		C107.7,75,107.7,75,107.8,75.1z"/>
	<path class="st8" d="M53.1,127.1c-0.1,0-0.1-0.1-0.2-0.1c-0.5-0.3-1-0.6-1.5-0.9c-0.2-0.1-0.2-0.2-0.1-0.4c0.3-0.5,0.3-0.5,0.8-0.2
		c0.4,0.3,0.4,0.3,0.7-0.1c0.1-0.2,0.4-0.5,0.4-0.7c0-0.2-0.4-0.3-0.6-0.5c-0.1-0.1-0.2-0.2-0.1-0.3c0.3-0.5,0.3-0.6,0.8-0.2
		c0.3,0.2,0.5,0.2,0.6-0.1c0.1-0.3,0.3-0.5,0.5-0.8c0.1-0.1,0.1-0.2-0.1-0.3c-0.2-0.1-0.4-0.3-0.7-0.4c-0.2-0.1-0.2-0.2-0.1-0.3
		c0.3-0.5,0.3-0.5,0.8-0.2c0.4,0.3,0.8,0.5,1.2,0.8c0.2,0.1,0.2,0.2,0.1,0.4c-0.9,1.4-1.8,2.8-2.7,4.1
		C53.3,127,53.2,127.1,53.1,127.1z"/>
	<path class="st8" d="M48.4,116.3c-0.1,0-0.1,0.1-0.2,0.1c-1.3,1.1-2.6,2.2-3.9,3.2c-0.1,0.1-0.2,0.1-0.3,0
		c-0.4-0.5-0.8-0.9-1.2-1.4c-0.1-0.1-0.1-0.2,0-0.3c0.5-0.4,0.5-0.4,0.9,0.1c0,0.1,0.1,0.1,0.1,0.2c0.1,0.2,0.3,0.2,0.4,0
		c0,0,0.1-0.1,0.1-0.1c0.2-0.2,0.6-0.3,0.6-0.5c0-0.2-0.3-0.4-0.4-0.6c-0.1-0.1-0.1-0.2,0-0.3c0.5-0.4,0.5-0.4,0.9,0.1
		c0.2,0.3,0.4,0.3,0.6,0.1c0.2-0.2,0.5-0.4,0.7-0.6c0.1-0.1,0.1-0.2,0-0.3c-0.1-0.1-0.2-0.2-0.3-0.4c-0.4-0.4-0.3-0.6,0.2-0.9
		c0.1-0.1,0.2,0,0.2,0c0.4,0.5,0.9,1,1.3,1.6C48.3,116.2,48.4,116.2,48.4,116.3z"/>
	<path class="st8" d="M48.3,69.8c-0.1,0.6-0.5,1.1-1,1.4c-0.5,0.3-0.9,0-1.3-0.3c-0.6-0.4-0.6-0.4-0.1-1c0.2-0.3,0.4-0.3,0.6,0
		c0.1,0.1,0.2,0.1,0.3,0.2c0.1,0.1,0.2,0.1,0.3,0c0.1-0.1,0.1-0.2,0-0.3c-0.1-0.1-0.2-0.2-0.3-0.3c-0.9-0.8-1.8-1.6-2.7-2.4
		c-0.2-0.2-0.2-0.3,0-0.4c0.6-0.6,0.5-0.6,1.2-0.1c0.8,0.7,1.5,1.3,2.3,2c0.2,0.2,0.5,0.4,0.7,0.7C48.2,69.4,48.3,69.5,48.3,69.8z"
		/>
	<path class="st8" d="M107.2,115.9c-0.5-0.5-0.9-1-1.3-1.5c-0.6-0.8-1.3-1.4-2.2-1.9c-0.6-0.4-0.6-0.4-0.2-1
		c0.2-0.3,0.3-0.3,0.5-0.1c1,0.8,2.2,1.2,3.5,1.5c0.4,0.1,0.7,0.2,1.1,0.3c0.2,0,0.2,0.1,0.1,0.3c-0.5,0.8-0.4,0.8-1.3,0.5
		c-0.4-0.2-0.9-0.3-1.4-0.4c0.4,0.3,0.7,0.7,1.1,1c0.6,0.5,0.6,0.5,0.1,1.2C107.3,115.8,107.3,115.8,107.2,115.9z"/>
	<path class="st8" d="M59.7,128c0-0.1-0.1-0.1-0.1-0.1c-0.2-0.1-0.3-0.1-0.5-0.2c-0.4-0.1-0.4-0.3-0.3-0.6c0.1-0.3,0.3-0.4,0.6-0.2
		c0.6,0.3,0.6,0.3,0.9-0.3c0.2-0.5,0.4-0.9,0.6-1.4c0.1-0.2,0.2-0.2,0.3-0.1c0.8,0.3,0.8,0.3,0.5,1.1c-0.5,1.3-1.1,2.7-1.6,4
		c-0.1,0.2-0.2,0.3-0.4,0.2c-0.5-0.2-1.1-0.4-1.6-0.6c-0.2-0.1-0.2-0.2-0.2-0.4c0.2-0.5,0.2-0.5,0.8-0.3c0.5,0.2,0.5,0.2,0.8-0.3
		C59.5,128.4,59.6,128.2,59.7,128z"/>
	<path class="st8" d="M108.8,88.6c-0.1-0.2,0.1-0.2,0.2-0.2c1.3-0.2,2.6-0.4,4-0.5c0.3,0,0.4-0.2,0.3-0.5c0-0.1-0.1-0.3,0-0.4
		c0.2-0.1,0.5-0.1,0.7-0.1c0.1,0,0.1,0.1,0.1,0.2c0.1,0.8,0.2,1.6,0.3,2.4c0,0.2,0,0.3-0.2,0.3c0,0,0,0-0.1,0
		c-0.6,0.1-0.6,0.1-0.6-0.5c0-0.3-0.2-0.2-0.4-0.2c-1.3,0.2-2.5,0.3-3.8,0.5c-0.5,0.1-0.5,0.1-0.6-0.4
		C108.8,88.9,108.8,88.8,108.8,88.6z"/>
	<path class="st8" d="M50.1,118c0,0.1-0.1,0.2-0.2,0.2c-0.9,1-1.9,1.9-2.8,2.9c-0.2,0.2-0.2,0.3,0,0.4c0.1,0.1,0.4,0.3,0.3,0.4
		c-0.1,0.2-0.3,0.4-0.5,0.5c-0.1,0.1-0.1,0-0.2,0c-0.6-0.6-1.2-1.2-1.8-1.7c-0.1-0.1-0.1-0.2,0-0.3c0.4-0.5,0.4-0.5,0.9-0.1
		c0.2,0.2,0.3,0.1,0.4,0c0.9-1,1.9-1.9,2.8-2.9c0.2-0.2,0.3-0.2,0.5,0c0.1,0.2,0.3,0.3,0.4,0.4C50.1,117.9,50.1,118,50.1,118z"/>
	<path class="st8" d="M34.4,85.6c0.2-0.8,0.4-1.6,0.6-2.4c0-0.1,0.1-0.2,0.2-0.1c0,0,0.1,0,0.1,0c0.5,0.1,0.6,0.1,0.4,0.7
		c-0.1,0.3,0,0.3,0.2,0.4c1.3,0.3,2.6,0.6,3.9,0.9c0.3,0.1,0.4,0.1,0.3,0.4c-0.2,0.8-0.2,0.8-1,0.6c-1.1-0.3-2.3-0.6-3.4-0.8
		c-0.3-0.1-0.3,0-0.4,0.2c-0.1,0.5-0.4,0.6-0.8,0.3C34.4,85.8,34.4,85.7,34.4,85.6z"/>
	<path class="st8" d="M95.9,126.7c-0.1,0-0.2-0.2-0.3-0.3c-0.3-0.2-0.3-0.4,0.1-0.6c0.3-0.1,0.3-0.3,0.1-0.6c-0.8-1-1.5-2.1-2.3-3.1
		c-0.1-0.2-0.2-0.3,0.1-0.4c0.7-0.5,0.7-0.5,1.2,0.2c0.7,0.9,1.4,1.9,2,2.8c0.1,0.2,0.3,0.2,0.4,0.1c0.1-0.1,0.3-0.3,0.4-0.3
		c0.2,0.1,0.3,0.4,0.4,0.6c0.1,0.1,0,0.1-0.1,0.2C97.4,125.7,96.7,126.2,95.9,126.7C96,126.7,96,126.7,95.9,126.7z"/>
	<path class="st8" d="M101.8,63.9c-0.2,0.2-0.3,0.4-0.5,0.6c-0.1,0.1-0.2-0.1-0.3-0.2c-0.2-0.3-0.4-0.2-0.6,0.1c-0.8,1-1.7,2-2.5,3
		c-0.1,0.2-0.2,0.2-0.4,0c-0.7-0.6-0.7-0.6-0.1-1.2c0.7-0.9,1.5-1.8,2.2-2.6c0.2-0.2,0.2-0.3,0-0.4c-0.1-0.1-0.4-0.2-0.4-0.3
		c0.1-0.2,0.3-0.4,0.4-0.6c0.1-0.1,0.1,0,0.2,0c0.7,0.5,1.3,1.1,2,1.6C101.7,63.8,101.7,63.9,101.8,63.9z"/>
	<path class="st8" d="M76,58.2c0.1-1.6,0.2-3.2,0.3-4.9c0-0.2,0.1-0.2,0.3-0.2c0.9,0,0.9,0,0.8,0.9c-0.1,1.2-0.1,2.3-0.2,3.5
		c0,0.2,0,0.3,0.3,0.3c0.2,0,0.5,0,0.7,0c0.2,0,0.3,0.1,0.2,0.3c0,0.1,0,0.2,0,0.3c0,0.2-0.1,0.2-0.3,0.2c-0.6-0.1-1.2-0.1-1.8-0.1
		C76,58.6,75.9,58.5,76,58.2z"/>
	<path class="st8" d="M106.4,79.6c-0.2,0-0.2-0.1-0.2-0.1c-0.3-0.6-0.6-1.2-0.9-1.8c-0.1-0.1,0-0.2,0.1-0.3c1.5-0.7,3.1-1.4,4.6-2.1
		c0.2-0.1,0.2,0,0.3,0.1c0,0,0,0,0,0c0.4,0.8,0.4,0.8-0.4,1.2c-1.1,0.5-2.1,1-3.2,1.5c-0.2,0.1-0.3,0.2-0.1,0.4
		c0.1,0.2,0.2,0.3,0.2,0.5c0.1,0.1,0.3,0.3,0.2,0.4C106.9,79.5,106.6,79.6,106.4,79.6z"/>
	<path class="st8" d="M89.7,61.3c-0.1,0.2-0.2,0.4-0.3,0.6c-0.1,0.1-0.2,0-0.2,0c-0.6-0.3-1.2-0.5-1.8-0.8c-0.2-0.1-0.2-0.1-0.1-0.3
		c0.7-1.5,1.4-3.1,2.1-4.6c0.1-0.2,0.1-0.2,0.3-0.1c0.9,0.3,0.9,0.3,0.5,1.1c-0.5,1-0.9,2.1-1.4,3.1c-0.1,0.3-0.1,0.4,0.2,0.5
		c0.2,0.1,0.4,0.2,0.7,0.3C89.6,61.2,89.7,61.2,89.7,61.3z"/>
	<path class="st8" d="M41.8,105.7c0,0.1-0.1,0.1-0.2,0.2c-1.6,0.6-3.2,1.2-4.8,1.8c-0.2,0.1-0.2,0-0.3-0.1c0,0,0,0,0-0.1
		c-0.3-0.8-0.3-0.8,0.5-1.1c1.4-0.5,2.7-1,4.1-1.5c0.2-0.1,0.3-0.1,0.4,0.2C41.6,105.3,41.7,105.5,41.8,105.7z"/>
	<path class="st8" d="M74.2,131.4c-0.7,0-1.3-0.6-1.3-1.3c0-0.7,0.6-1.3,1.3-1.3c0.7,0,1.3,0.6,1.3,1.3
		C75.5,130.8,74.9,131.4,74.2,131.4z"/>
	<path class="st8" d="M78.8,112.2c0.3-0.1,0.6-0.2,0.9-0.4c0.1,0,0.1,0,0.1,0c0.2,0.4,0.7,0.6,1,1c0.1-0.4,0.1-0.7,0.2-1
		c0-0.2,0-0.4-0.3-0.3c0.6-0.2,1.1-0.5,1.6-0.8c0,0.2,0,0.3,0.1,0.5c0.2,0.4,0.4,0.9,0.7,1.3c0.1,0.3,0.4,0.4,0.6,0.2
		c0.3-0.1,0.5-0.3,0.4-0.6c-0.1-0.6-0.5-1-0.7-1.5c-0.1-0.2-0.3-0.1-0.4-0.1c0.2-0.2,0.5-0.3,0.8-0.4c-0.2,0.3-0.1,0.4-0.1,0.6
		c0.2,0.4,0.4,0.7,0.6,1.1c0.2,0.5,0,0.9-0.5,1.2c-0.5,0.3-0.9,0.2-1.2-0.3c-0.2-0.4-0.4-0.8-0.6-1.2c-0.1-0.1-0.1-0.3-0.3-0.2
		c-0.2,0-0.2,0.2-0.3,0.3c-0.1,0.4-0.2,0.9-0.2,1.3c0,0.3,0.2,0.6,0.3,0.8c0.1,0.2,0.3,0.1,0.5,0.1c-0.4,0.2-0.8,0.4-1.2,0.4
		C80.8,113.6,79.7,112.4,78.8,112.2z"/>
	<path class="st8" d="M85.3,108.6c0.2,0.3,0.4,0.5,0.5,0.7c-0.1,0.1-0.2,0-0.3-0.1c-0.3-0.1-0.6-0.1-0.8,0.1
		c-0.2,0.2-0.3,0.5-0.3,0.8c0.1,0.5,0.4,0.9,0.9,1.1c0.4,0.2,0.9,0,1.1-0.4c0.1-0.1,0.1-0.3,0.1-0.5c0.2,0.2,0.1,0.3,0,0.5
		c-0.2,0.6-0.9,0.9-1.5,0.9c-0.6-0.1-1-0.6-1.1-1.1c-0.1-0.7,0.3-1.3,1-1.5C85.1,109,85.4,109,85.3,108.6z"/>
	<path class="st8" d="M87.6,110.2c0,0.2-0.1,0.3-0.3,0.3c-0.2,0-0.3-0.1-0.3-0.3c0-0.2,0.1-0.3,0.3-0.3
		C87.5,109.8,87.6,110,87.6,110.2z"/>
	<path class="st8" d="M82.4,110.7C82.4,110.7,82.3,110.7,82.4,110.7C82.3,110.8,82.3,110.7,82.4,110.7
		C82.3,110.7,82.4,110.7,82.4,110.7L82.4,110.7z"/>
	<path class="st8" d="M82.4,110.7C82.4,110.7,82.4,110.7,82.4,110.7C82.4,110.7,82.4,110.7,82.4,110.7L82.4,110.7z"/>
	<path class="st8" d="M64.9,112.1c0.5,0,0.8,0.2,1.2,0.3c-0.3,0-0.3,0.1-0.4,0.3c-0.1,0.5-0.3,1-0.4,1.5c-0.1,0.3-0.1,0.3,0.2,0.6
		c-0.7-0.2-1.3-0.3-1.9-0.6c-0.1-0.1-0.2-0.2-0.2-0.3c-0.1-0.3-0.2-0.7-0.2-1c0-0.1,0-0.1-0.1-0.2c-0.1,0-0.1,0.1-0.2,0.2
		c-0.1,0.2-0.1,0.3-0.2,0.5c-0.1,0.2-0.1,0.4,0.1,0.5c-0.4-0.1-0.8-0.3-1.1-0.4c0.3,0,0.4-0.1,0.5-0.3c0.2-0.5,0.4-1,0.6-1.5
		c0.1-0.2,0.1-0.3,0-0.5c0.6,0.2,1,0.4,1.5,0.6c0.3,0.2,0.4,0.4,0.4,0.7c-0.1,0.3-0.3,0.5-0.6,0.5c-0.2,0-0.2,0.1-0.2,0.2
		c0.1,0.3,0.1,0.6,0.2,0.9c0,0.2,0.2,0.3,0.4,0.3c0.2,0,0.2-0.2,0.3-0.3c0.2-0.5,0.3-1,0.4-1.5C65.1,112.4,65.2,112.3,64.9,112.1z
		 M64,112.1c0-0.3-0.2-0.4-0.4-0.5c-0.3-0.1-0.2,0.2-0.3,0.3c-0.1,0.1-0.1,0.2-0.1,0.3c0,0.1-0.2,0.3,0,0.4c0.2,0.1,0.4,0.2,0.6,0
		C63.9,112.5,64,112.3,64,112.1z"/>
	<path class="st8" d="M59.3,109.8c-0.6,0.4-1.3,0.7-1.9,1.1c0.2-0.8,0.3-1.5,0.5-2.2c0,0-0.1,0-0.1,0c-0.4,0.6-0.9,1-1.1,1.7
		c-0.1-0.1-0.3-0.2-0.4-0.3c0.4-0.1,1.6-1.6,1.5-2c0.2,0.1,0.4,0.2,0.6,0.4c0.1,0.1,0.1,0.2,0,0.4c-0.1,0.4-0.2,0.9-0.3,1.3
		c0,0,0,0.1,0,0.1c0,0,0.1,0,0.1,0c0.4-0.2,0.8-0.5,1.2-0.7c0.2-0.1,0.3-0.2,0.5,0c0.2,0.2,0.4,0.2,0.5,0.4l0,0
		c-0.2-0.1-0.4,0-0.5,0.2c-0.3,0.4-0.6,0.8-0.9,1.2c-0.1,0.1-0.2,0.3-0.2,0.5c-0.3-0.2-0.5-0.4-0.8-0.5
		C58.7,111,59,110.4,59.3,109.8c0.1,0,0.1,0,0.1,0C59.4,109.7,59.4,109.8,59.3,109.8z"/>
	<path class="st8" d="M65.7,114.8c0.3,0,0.4-0.1,0.4-0.3c0.1-0.5,0.3-1.1,0.4-1.6c0-0.2,0.1-0.4-0.2-0.5c0.5,0.1,1,0.2,1.5,0.4
		c0.6,0.3,0.8,0.8,0.6,1.4c-0.1,0.6-0.6,1-1.2,1C66.7,115.2,66.2,115,65.7,114.8z M67.9,113.6c0-0.3-0.1-0.6-0.4-0.7
		c-0.2-0.1-0.3-0.1-0.3,0.2c-0.1,0.5-0.3,1.1-0.4,1.6c-0.1,0.3,0.1,0.4,0.4,0.4c0.2,0,0.4-0.2,0.5-0.4
		C67.8,114.3,67.8,114,67.9,113.6z"/>
	<path class="st8" d="M59.3,112.3c0.3,0,0.4-0.1,0.5-0.3c0.2-0.4,0.4-0.9,0.7-1.3c0.1-0.2,0.2-0.3,0-0.6c0.6,0.3,1.1,0.6,1.7,0.8
		c0.1,0.1,0.1,0.1,0.1,0.2c-0.1,0.2-0.2,0.3-0.3,0.5c0.2-0.5-0.2-0.8-0.6-1c-0.1,0-0.2-0.1-0.2,0c-0.1,0.2-0.3,0.5-0.4,0.7
		c-0.1,0.1,0.1,0.1,0.2,0.2c0.3,0,0.4-0.2,0.6-0.3c-0.2,0.4-0.4,0.8-0.6,1.1c0-0.2,0.1-0.4-0.1-0.6c-0.1-0.1-0.2-0.2-0.3,0
		c0,0.1-0.1,0.1-0.1,0.2c-0.1,0.2-0.3,0.4-0.1,0.6c0.2,0.2,0.5,0.3,0.9,0.2c0.1,0,0.2-0.1,0.4-0.2c0,0,0,0,0.1,0
		c-0.4,0.5-0.4,0.6-0.9,0.3C60.3,112.8,59.8,112.6,59.3,112.3L59.3,112.3z"/>
	<path class="st8" d="M69.9,113c0.4,0.9,0.6,1.8,1,2.7c-0.3,0-0.7,0-1.1-0.1c0.1-0.1,0.4,0,0.3-0.2c-0.1-0.2,0-0.4-0.3-0.5
		c-0.2,0-0.3,0-0.5-0.1c-0.3-0.1-0.4,0.1-0.4,0.3c-0.1,0.2,0,0.3,0.2,0.4c-0.2,0-0.5,0-0.7-0.1C69.1,114.8,69.4,113.8,69.9,113z
		 M69.9,114.8c-0.1-0.3-0.2-0.5-0.3-0.8c-0.2,0.3-0.3,0.5-0.4,0.8c0.2,0,0.4,0,0.5,0.1C69.8,114.8,69.8,114.8,69.9,114.8z"/>
	<path class="st8" d="M71.2,116.4c0.2-0.1,0.3-0.2,0.4-0.3c0.1-0.1,0.3-0.3-0.1-0.3c-0.1,0-0.2-0.1-0.2-0.2c0-0.1,0-0.2,0.1-0.3
		c0.1-0.1,0.3-0.1,0.4,0c0.3,0.2,0.2,0.5,0.1,0.7C71.8,116.1,71.6,116.3,71.2,116.4z"/>
	<path class="st8" d="M62.6,111.1C62.6,111.1,62.7,111.1,62.6,111.1C62.7,111.2,62.7,111.2,62.6,111.1
		C62.6,111.2,62.6,111.2,62.6,111.1C62.6,111.2,62.6,111.1,62.6,111.1z"/>
	<path class="st8" d="M56.2,110C56.2,110,56.2,110,56.2,110C56.2,110,56.2,110,56.2,110C56.2,110,56.2,110,56.2,110
		C56.2,110,56.2,110,56.2,110z"/>
	<path class="st8" d="M60.4,110C60.5,110,60.5,110,60.4,110L60.4,110C60.5,110.1,60.4,110,60.4,110L60.4,110z"/>
	<path class="st8" d="M59.4,112.3C59.3,112.3,59.3,112.3,59.4,112.3C59.3,112.3,59.3,112.3,59.4,112.3L59.4,112.3z"/>
	<path class="st8" d="M61.7,112.6c0,0,0,0.1,0,0.1C61.6,112.7,61.6,112.7,61.7,112.6C61.6,112.6,61.6,112.6,61.7,112.6L61.7,112.6z"
		/>
	<path class="st8" d="M61.7,112.6C61.7,112.6,61.7,112.6,61.7,112.6C61.7,112.6,61.7,112.6,61.7,112.6
		C61.7,112.6,61.7,112.6,61.7,112.6L61.7,112.6z"/>
	<path class="st8" d="M60.5,110.1C60.5,110.1,60.6,110.1,60.5,110.1C60.6,110.1,60.6,110.1,60.5,110.1
		C60.5,110.1,60.5,110.1,60.5,110.1L60.5,110.1z"/>
	<path class="st8" d="M61.5,71.6c0.5-0.2,0.9-0.4,1.4-0.6c0.3-0.1,0.6-0.1,0.9,0.2c0.2,0.3,0.2,0.6,0,0.8c-0.1,0.1-0.1,0.1,0,0.2
		c0.4,0.2,0.7,0.5,1.2,0.6c-0.4,0.3-0.8,0.4-1.2,0c-0.2-0.2-0.4-0.2-0.6-0.4c-0.1,0-0.1-0.1-0.2,0c-0.1,0.1,0,0.1,0,0.2
		c0.2,0.3,0.1,0.7,0.6,0.8c-0.4,0.2-0.7,0.3-1.1,0.5c0.2-0.2,0.2-0.3,0.1-0.6c-0.2-0.5-0.4-1-0.7-1.5C61.9,71.7,61.8,71.6,61.5,71.6
		z M62.9,71.2c-0.4,0-0.5,0.1-0.3,0.5c0.1,0.2,0.1,0.3,0.2,0.5c0,0.1,0,0.2,0.2,0.1c0.2,0,0.5-0.3,0.5-0.6
		C63.4,71.5,63.1,71.2,62.9,71.2z"/>
	<path class="st8" d="M69.4,68.8c0.1,0.4,0.2,0.6,0.2,1c-0.3-0.4-0.6-0.6-1.1-0.5c-0.3,0.1-0.5,0.3-0.6,0.6c-0.1,0.5,0,0.9,0.3,1.4
		c0.1,0.2,0.3,0.4,0.6,0.3c0.2,0,0.5,0,0.5-0.2c0.1-0.3-0.2-0.6-0.5-0.7c0.4-0.1,0.8-0.2,1.2-0.3c-0.3,0.2-0.2,0.4-0.1,0.6
		c0.1,0.2,0,0.4-0.2,0.5c-0.4,0.2-0.9,0.4-1.4,0.3c-0.6-0.1-0.9-0.5-1-1.1c-0.1-0.5,0.2-1.1,0.7-1.3c0.3-0.2,0.7-0.2,1-0.2
		C69.2,69.1,69.3,69.2,69.4,68.8z"/>
	<path class="st8" d="M66.5,70.5c-0.2-0.1-0.2-0.3-0.4-0.4c-0.3-0.1-0.6,0-0.8,0.1c-0.2,0.1,0,0.3,0.1,0.5c0,0,0,0.1,0,0.1
		c0.1,0.1,0,0.4,0.3,0.4c0.2,0,0.3-0.3,0.2-0.5c0,0,0-0.1,0.1-0.2c0.1,0.4,0.3,0.8,0.4,1.3c-0.2-0.2-0.3-0.3-0.4-0.4
		c-0.1,0-0.2-0.1-0.3,0c-0.1,0.1,0,0.2,0,0.2c0,0.1,0,0.1,0.1,0.2c0.1,0.2,0,0.5,0.3,0.5c0.3,0,0.7-0.3,0.8-0.6c0-0.1,0-0.2,0.1-0.3
		c0,0.2,0.1,0.4,0.1,0.6c0,0.1,0,0.2-0.1,0.2c-0.6,0.2-1.3,0.4-1.9,0.6c0.3-0.1,0.3-0.3,0.2-0.5c-0.2-0.5-0.3-1-0.5-1.6
		c0-0.1-0.1-0.3-0.3-0.4c0.6-0.2,1.1-0.4,1.7-0.5c0.1,0,0.2,0,0.2,0.1C66.4,70.1,66.5,70.2,66.5,70.5z"/>
	<path class="st8" d="M72.9,69.2c0,0.6,0,1.1,0,1.6c0,0.2,0.1,0.3,0.3,0.4c-0.3,0-0.5,0-0.8,0c0.3-0.1,0.3-0.3,0.3-0.6
		c0-0.4,0-0.9,0-1.3c0-0.3,0-0.5-0.3-0.6c0.5-0.1,0.9-0.1,1.2,0.4c0.2,0.4,0.6,0.7,0.8,1c0.2-0.6,0.1-1.3-0.3-1.5c0.3,0,0.5,0,0.8,0
		c-0.3,0.1-0.3,0.3-0.3,0.6c0,0.7,0,1.3,0,2C74,70.6,73.5,69.9,72.9,69.2z"/>
	<path class="st8" d="M81.3,72.3c-0.3,0-0.5-0.1-0.4-0.4c0.1-0.2,0-0.3-0.2-0.3c-0.1,0-0.2-0.1-0.3-0.1c-0.3-0.1-0.4-0.3-0.1-0.5
		c0.5-0.4,1-0.8,1.5-1.2c0.1-0.1,0.2-0.1,0.2,0c0.1,0.1,0.1,0.1,0,0.2c-0.1,0.3-0.2,0.6-0.2,0.9c0,0.2-0.2,0.4,0.1,0.6
		c0.1,0,0,0.2,0,0.3C81.5,71.8,81.5,72.1,81.3,72.3C81.4,72.4,81.3,72.3,81.3,72.3z M80.5,71.1c0.2,0.1,0.4,0.1,0.5,0.1
		c0.1,0,0.2,0,0.2-0.1c0-0.2,0.2-0.4,0.1-0.7C81.1,70.6,80.8,70.8,80.5,71.1z"/>
	<path class="st8" d="M82.8,71.5c0.3,0,0.6,0,0.7-0.3c0.1-0.1,0.1-0.3-0.1-0.4c-0.2-0.2-0.4-0.1-0.7,0c0.3-0.4,0.7-0.5,1.1-0.3
		c0.4,0.2,0.4,0.7,0,0.9c-0.1,0.1-0.2,0.1-0.1,0.3c0.2,0.5,0,1-0.6,1.2c-0.4,0.1-0.7,0-1-0.2c-0.1-0.1-0.2-0.2-0.1-0.3
		c0-0.1,0.1-0.1,0.2-0.2c0.1,0,0.2,0.1,0.3,0.2c0,0,0,0,0,0.1c0.1,0.2,0.3,0.4,0.6,0.3c0.2-0.1,0.3-0.4,0.2-0.7
		c0-0.1-0.1-0.2-0.2-0.3C82.9,71.6,82.9,71.6,82.8,71.5z"/>
	<path class="st8" d="M77,70.4c0,0.5-0.3,0.9-0.8,0.9c-0.5,0-0.8-0.4-0.8-0.9c0-0.6,0.4-1,0.9-0.9C76.7,69.5,77,69.9,77,70.4z
		 M75.8,70.5C75.9,70.5,75.9,70.5,75.8,70.5c0,0.2,0,0.3,0,0.5c0,0.1,0.1,0.2,0.2,0.2c0.1,0,0.2-0.1,0.2-0.2
		c0.1-0.4,0.1-0.8,0.1-1.2c0-0.1-0.1-0.2-0.2-0.2c-0.1,0-0.2,0.1-0.2,0.2C75.9,70.1,75.9,70.3,75.8,70.5z"/>
	<path class="st8" d="M84.6,71.7C84.6,71.7,84.6,71.6,84.6,71.7C85,71,85,71,85.7,71.4c0.2,0.1,0.5,0.2,0.7,0.4
		c-0.6,0.6-1.2,1.2-1.8,1.8c-0.1,0.1-0.2,0.1-0.3,0c-0.1-0.1,0-0.2,0.1-0.2c0.4-0.5,0.9-0.9,1.4-1.4C85.4,71.8,85,71.5,84.6,71.7z"
		/>
	<path class="st8" d="M70.8,71.5c-0.2,0-0.3-0.1-0.3-0.3c0-0.2,0.1-0.3,0.3-0.3c0.2,0,0.3,0.1,0.3,0.3C71.2,71.3,71,71.4,70.8,71.5z
		"/>
	<path class="st8" d="M77.9,71.2c0,0.2-0.1,0.3-0.3,0.3c-0.2,0-0.3-0.1-0.3-0.3c0-0.2,0.1-0.3,0.3-0.3C77.7,70.9,77.9,71,77.9,71.2z
		"/>
	<path class="st8" d="M63.6,73.4C63.6,73.4,63.7,73.4,63.6,73.4C63.7,73.4,63.6,73.4,63.6,73.4C63.6,73.4,63.6,73.4,63.6,73.4
		C63.6,73.4,63.6,73.4,63.6,73.4z"/>
	<path class="st8" d="M77.8,92.5c0,2.3-1.9,4.1-4.3,4c-2.2,0-4-2-3.9-4.1c0-2.3,1.9-4.1,4.2-4C76,88.5,77.8,90.4,77.8,92.5z
		 M73.7,96.4c2.2,0,4-1.7,4-3.9c0-2.2-1.8-3.9-4-3.9c-2.2,0-4,1.8-4,3.9C69.7,94.7,71.5,96.4,73.7,96.4z"/>
</g>
</svg>
